<svg xmlns:rdf="http://www.w3.org/1999/02/22-rdf-syntax-ns#" xmlns="http://www.w3.org/2000/svg" height="283.9" width="210.8" xmlns:cc="http://creativecommons.org/ns#" xmlns:dc="http://purl.org/dc/elements/1.1/" viewbox="0 0 210.81183 283.88855">
<g transform="translate(-266.6 -384.2)">
<g transform="translate(-50.27 936.5)">
<path d="m1948-2492 0.5475-6.705c1.692-20.72 6.226-27.72 31.96-49.34 12.49-10.49 16.59-15.67 17.17-21.68 1.63-14.15-11.13-18.57-19.45-18.65-10.77-0.099-22.95 6.349-17.14 21.3l-12.08 3.547c-2.439-13.95 0.056-27.04 11.38-32.86 15.1-7.572 34.48-4.601 44.25 7.33 6.571 8.019 8.064 19.09 4.543 27.75-10.3 22.16-45.24 31.91-48.13 57.53h38.63v-14.27h11.38v26.26z" transform="matrix(.3011 0 0 .3011 -267.5 230.8)"/>
<path d="m2634-1767-0.5475 6.705c-1.692 20.72-6.226 27.72-31.96 49.34-12.49 10.49-16.59 15.67-17.17 21.68-1.63 14.15 11.13 18.57 19.45 18.65 10.77 0.099 22.95-6.349 17.14-21.3l12.08-3.547c2.439 13.95-0.056 27.04-11.38 32.86-15.1 7.572-34.48 4.601-44.25-7.33-6.571-8.019-8.064-19.09-4.543-27.75 10.3-22.16 45.24-31.91 48.13-57.53h-38.63v14.27h-11.38v-26.26z" transform="matrix(.3011 0 0 .3011 -267.5 230.8)"/>
<path d="m414.9-480.9c2.879-5.776 4.976-11.7 5.348-18.04 0.3416-2.332-1.075-2.371-1.288-0.7286-4.076 15.59-25.76 11.37-25.02-3.297 0.605-11.89 12.42-14.45 18.58-10.56 2.434 1.433 2.296 0.5746 0.9679-0.9118-9.155-10.21-3.61-23.36 8.761-23.6 13.38 0.7934 16.85 14.87 8.644 23.15-1.021 0.9946-3.284 4.191 0.123 1.956 8.287-5.888 19.79 0.4428 19.55 9.521-0.4327 16.74-20.84 17.99-25.2 4.006-0.4198-1.55-1.629-2.329-1.295 0.3043 0.6049 4.767 1.856 11.95 5.437 18.21z"/>
<path d="m429.6-339.2c-2.879 5.775-4.976 11.7-5.348 18.04-0.3416 2.332 1.075 2.371 1.288 0.7286 4.076-15.59 25.76-11.37 25.02 3.296-0.605 11.89-12.42 14.45-18.58 10.56-2.434-1.433-2.296-0.5746-0.9679 0.9118 9.155 10.21 3.61 23.36-8.761 23.6-13.38-0.7934-16.85-14.87-8.644-23.15 1.021-0.9946 3.284-4.191-0.123-1.956-8.287 5.888-19.79-0.4428-19.55-9.521 0.4327-16.74 20.84-17.99 25.2-4.006 0.4198 1.55 1.629 2.329 1.295-0.3043-0.6049-4.767-1.856-11.95-5.437-18.21z"/>
<path d="m324.4-491.5c1.192-2.445 2.352-4.721 2.984-7.401 0.4192-2.528-0.4383-1.589-0.9252 0.0682-0.7212 2.297-2.723 3.344-4.58 3.369-3.371 0.0455-5.053-2.604-4.948-5.454-0.3681-2.999 2.671-5.12 4.962-4.957 1.722 0.1229 3.224 1.052 4.133 1.775 0.5963 0.3153 1.234 0.4546 0.3449-0.3585-1.678-1.833-3.077-2.964-3.046-5.711 0.029-2.579 2.234-5.268 5.155-5.184 3.652 0.1055 5.312 2.89 5.303 5.481-0.01 1.888-0.9536 3.626-2.411 4.703-0.9442 0.7661-0.6794 1.34 0.3977 0.6148 1.035-0.892 2.267-1.283 3.545-1.31 3.49-0.0547 4.855 2.961 4.655 5.764-0.1874 2.626-2.423 5.328-5.369 5.022-2.631-0.3015-4.013-2.51-4.805-4.777-0.2623-0.6951-0.676-0.8828-0.6645 0.1531 0.6077 5.057 2.492 8.204 2.505 8.202z"/>
<path d="m520.2-329.1c-1.192 2.445-2.352 4.721-2.984 7.401-0.4192 2.528 0.4383 1.589 0.9252-0.0682 0.7212-2.297 2.723-3.344 4.58-3.369 3.371-0.0455 5.053 2.604 4.948 5.454 0.3681 2.999-2.671 5.12-4.962 4.957-1.722-0.1229-3.224-1.052-4.133-1.775-0.5963-0.3153-1.234-0.4546-0.3449 0.3585 1.678 1.833 3.077 2.964 3.046 5.711-0.029 2.579-2.234 5.268-5.155 5.184-3.652-0.1055-5.312-2.89-5.303-5.481 0.01-1.888 0.9536-3.626 2.411-4.703 0.9442-0.7661 0.6794-1.34-0.3977-0.6148-1.035 0.892-2.267 1.283-3.545 1.31-3.49 0.0547-4.855-2.961-4.655-5.764 0.1874-2.626 2.423-5.328 5.369-5.022 2.631 0.3015 4.013 2.51 4.805 4.777 0.2623 0.6951 0.676 0.8828 0.6645-0.1531-0.6077-5.057-2.492-8.204-2.505-8.202z"/>
</g>
</g>
</svg>
