<svg xmlns:rdf="http://www.w3.org/1999/02/22-rdf-syntax-ns#" xmlns="http://www.w3.org/2000/svg" height="283.9" width="206.6" xmlns:cc="http://creativecommons.org/ns#" xmlns:dc="http://purl.org/dc/elements/1.1/">
<g transform="translate(-268.7 -384.2)" fill="#d40000">
<path d="m349.9 427.2c9.921-9.681 16.44-20.24 22.67-30.39 5.464 11.17 13.31 20.94 21.79 30.39-9.073 9.369-16.11 19.39-21.76 29.92-6.268-10.8-12.87-20.57-22.69-29.92z"/>
<path d="m349.9 626c9.921-9.681 16.44-20.24 22.67-30.39 5.464 11.17 13.31 20.94 21.79 30.39-9.073 9.369-16.11 19.39-21.76 29.92-6.268-10.8-12.87-20.57-22.69-29.92z"/>
<path d="m456.9 619.4c4.064-3.966 6.733-8.29 9.285-12.45 2.238 4.576 5.451 8.579 8.925 12.45-3.717 3.838-6.597 7.941-8.913 12.26-2.567-4.422-5.27-8.427-9.296-12.26z"/>
<path d="m269.2 433.1c4.064-3.966 6.733-8.29 9.285-12.45 2.238 4.576 5.451 8.579 8.925 12.45-3.717 3.838-6.597 7.941-8.913 12.26-2.567-4.422-5.27-8.427-9.296-12.26z"/>
<path d="m268.7 416.9 0.1648-2.019c0.5094-6.239 1.874-8.346 9.622-14.86 3.76-3.159 4.994-4.717 5.168-6.526 0.4909-4.26-3.351-5.591-5.855-5.614-3.242-0.0298-6.91 1.912-5.161 6.414l-3.637 1.068c-0.7343-4.2 0.0169-8.142 3.425-9.892 4.546-2.28 10.38-1.385 13.32 2.207 1.978 2.414 2.428 5.746 1.368 8.356-3.101 6.672-13.62 9.606-14.49 17.32h11.63v-4.295h3.426v7.907z"/>
<path d="m475.4 635.4-0.1648 2.019c-0.5094 6.239-1.874 8.346-9.622 14.86-3.76 3.159-4.994 4.717-5.168 6.526-0.4909 4.26 3.351 5.591 5.855 5.614 3.242 0.0298 6.91-1.912 5.161-6.414l3.637-1.068c0.7343 4.2-0.0169 8.142-3.425 9.892-4.546 2.28-10.38 1.385-13.32-2.207-1.978-2.414-2.428-5.746-1.368-8.356 3.101-6.672 13.62-9.606 14.49-17.32h-11.63v4.295h-3.426v-7.907z"/>
</g>
</svg>
