<svg xmlns:rdf="http://www.w3.org/1999/02/22-rdf-syntax-ns#" xmlns="http://www.w3.org/2000/svg" height="283.9" width="207.1" xmlns:cc="http://creativecommons.org/ns#" xmlns:dc="http://purl.org/dc/elements/1.1/">
<g transform="translate(-268.5 -384.2)" fill="#d40000">
<path d="m269.5 430.5c-1.583-3.472-1.757-9.405 2.971-10.21 3.562-0.4584 5.012 1.198 5.3 3.742 0.1422 0.743 0.5617 0.7885 0.6948-0.0583 0.2044-2.609 2.787-4.133 4.806-3.75 5.527 0.9454 5.204 7.028 3.398 11.16-2.731 5.479-5.601 8.938-8.245 14.45-3.038-5.741-6.507-10.41-8.926-15.33z"/>
<path d="m457.2 621.8c-1.583 3.472-1.757 9.405 2.971 10.21 3.562 0.4584 5.012-1.198 5.3-3.742 0.1422-0.743 0.5617-0.7885 0.6948 0.0583 0.2044 2.609 2.787 4.133 4.806 3.75 5.527-0.9454 5.204-7.028 3.398-11.16-2.731-5.479-5.601-8.938-8.245-14.45-3.038 5.741-6.507 10.41-8.926 15.33z"/>
<path d="m268.6 416.9 0.1648-2.019c0.5094-6.239 1.874-8.346 9.622-14.86 3.76-3.159 4.994-4.717 5.168-6.526 0.4909-4.26-3.351-5.591-5.855-5.614-3.242-0.0298-6.91 1.912-5.161 6.414l-3.637 1.068c-0.7343-4.2 0.0169-8.142 3.425-9.892 4.546-2.28 10.38-1.385 13.32 2.207 1.978 2.414 2.428 5.746 1.368 8.356-3.101 6.672-13.62 9.606-14.49 17.32h11.63v-4.295h3.426v7.907z"/>
<path d="m475.2 635.4-0.1648 2.019c-0.5094 6.239-1.874 8.346-9.622 14.86-3.76 3.159-4.994 4.717-5.168 6.526-0.4909 4.26 3.351 5.591 5.855 5.614 3.242 0.0298 6.91-1.912 5.161-6.414l3.637-1.068c0.7343 4.2-0.0169 8.142-3.425 9.892-4.546 2.28-10.38 1.385-13.32-2.207-1.978-2.414-2.428-5.746-1.368-8.356 3.101-6.672 13.62-9.606 14.49-17.32h-11.63v4.295h-3.426v-7.907z"/>
<path d="m360 398.2c7.144-0.4744 10.87 5.627 11.6 10.44 0.4334 0.7639 0.6707 0.5486 0.8369-0.0423 0.3493-6.174 5.875-11.22 10.99-10.53 8.328 0.1083 13.39 9.375 11.97 17.22-1.738 9.582-6.9 15.35-10.81 21.29-4.421 6.152-10.37 15.04-12.29 19.32 0 0-6.048-9.205-13.92-20.03-5.262-7.239-9.473-15.08-9.865-21.84-0.4479-7.715 2.719-14.63 11.49-15.83z"/>
<path d="m360 654.5c7.144 0.4744 10.87-5.627 11.6-10.44 0.4334-0.7639 0.6707-0.5486 0.8369 0.0423 0.3493 6.174 5.875 11.22 10.99 10.53 8.328-0.1083 13.39-9.375 11.97-17.22-1.738-9.582-6.9-15.35-10.81-21.29-4.421-6.152-10.37-15.04-12.29-19.32 0 0-6.048 9.205-13.92 20.03-5.262 7.239-9.473 15.08-9.865 21.84-0.4479 7.715 2.719 14.63 11.49 15.83z"/>
</g>
</svg>
