<svg xmlns:rdf="http://www.w3.org/1999/02/22-rdf-syntax-ns#" xmlns="http://www.w3.org/2000/svg" height="284.1" width="206.3" xmlns:cc="http://creativecommons.org/ns#" xmlns:dc="http://purl.org/dc/elements/1.1/">
<g transform="translate(-268.9 -384.1)" fill="#d40000">
<path d="m349.8 428c9.921-9.681 16.44-20.24 22.67-30.39 5.464 11.17 13.31 20.94 21.79 30.39-9.073 9.369-16.11 19.39-21.76 29.92-6.268-10.8-12.87-20.57-22.69-29.92z"/>
<path d="m349.8 625.1c9.921-9.681 16.44-20.24 22.67-30.39 5.464 11.17 13.31 20.94 21.79 30.39-9.073 9.369-16.11 19.39-21.76 29.92-6.268-10.8-12.87-20.57-22.69-29.92z"/>
<path d="m349.8 526.5c9.921-9.681 16.44-20.24 22.67-30.39 5.464 11.17 13.31 20.94 21.79 30.39-9.073 9.369-16.11 19.39-21.76 29.92-6.268-10.8-12.87-20.57-22.69-29.92z"/>
<path d="m456.7 619.7c4.064-3.966 6.733-8.29 9.285-12.45 2.238 4.576 5.451 8.579 8.925 12.45-3.717 3.838-6.597 7.941-8.913 12.26-2.567-4.422-5.27-8.427-9.296-12.26z"/>
<path d="m269.7 433.5c4.064-3.966 6.733-8.29 9.285-12.45 2.238 4.576 5.451 8.579 8.925 12.45-3.717 3.838-6.597 7.941-8.913 12.26-2.567-4.422-5.27-8.427-9.296-12.26z"/>
<path d="m268.9 409.5 2.547-1.84c2.214 3.534 4.685 5.863 8.465 5.462 5.674-0.3816 8.023-6.22 6.835-10.62-1.147-3.945-5.846-5.869-9.578-3.763-0.8802 0.4968-1.898 1.11-1.898 1.11l-1.329-2.166 8.764-10.19h-9.51v4.22h-3.649v-7.565h18.59v2.568s-4.979 5.069-6.627 7.847c4.055 0.1475 7.323 2.669 8.492 6.658 0.6864 2.098 0.3778 6.901-0.5167 8.968-1.494 3.451-5.584 6.25-9.322 6.412-6.271 0.4142-9.602-3.902-11.26-7.094z"/>
<path d="m475.2 642.9-2.547 1.84c-2.214-3.534-4.685-5.863-8.465-5.462-5.674 0.3816-8.023 6.22-6.835 10.62 1.147 3.945 5.846 5.869 9.578 3.763 0.8802-0.4968 1.898-1.016 1.898-1.016l1.573 2.034-9.008 10.23h9.51v-4.22h3.649v7.565h-18.59v-2.568s4.979-5.069 6.627-7.847c-4.055-0.1475-7.323-2.669-8.492-6.658-0.6864-2.098-0.3778-6.901 0.5167-8.968 1.494-3.451 5.584-6.25 9.322-6.412 6.271-0.4142 9.602 3.902 11.26 7.094z"/>
</g>
</svg>
