<svg xmlns:rdf="http://www.w3.org/1999/02/22-rdf-syntax-ns#" xmlns="http://www.w3.org/2000/svg" height="282.7" width="208.2" xmlns:cc="http://creativecommons.org/ns#" xmlns:dc="http://purl.org/dc/elements/1.1/">
<g transform="translate(-267.9 -384.8)" fill="#d40000">
<path d="m278.3 416.6v-2.813h2.585v-4.636h-12.93v-3.271l13.99-21.1 2.285 0.008v21.09h3.954v3.271h-3.954l-0.0761 4.636h2.167v2.813zm2.585-24.1-8.879 13.38h8.879z"/>
<path d="m465.8 635.7v2.813h-2.585v4.636h12.93v3.271l-13.99 21.1-2.285-0.008v-21.09h-3.954v-3.271h3.954l0.0761-4.636h-2.167v-2.813zm-2.585 24.1 8.879-13.38h-8.879z"/>
<path d="m269.2 431.3c-1.583-3.472-1.757-9.405 2.971-10.21 3.562-0.4584 5.012 1.198 5.3 3.742 0.1422 0.743 0.5617 0.7885 0.6948-0.0583 0.2044-2.609 2.787-4.133 4.806-3.75 5.527 0.9454 5.204 7.028 3.398 11.16-2.731 5.479-5.601 8.938-8.245 14.45-3.038-5.741-6.507-10.41-8.926-15.33z"/>
<path d="m305.4 396.3c7.144-0.4744 10.87 5.627 11.6 10.44 0.4334 0.7639 0.6707 0.5486 0.8369-0.0423 0.3493-6.174 5.875-11.22 10.99-10.53 8.328 0.1083 13.39 9.375 11.97 17.22-1.738 9.582-6.9 15.35-10.81 21.29-4.421 6.152-10.37 15.04-12.29 19.32 0 0-6.048-9.205-13.92-20.03-5.262-7.239-9.473-15.08-9.865-21.84-0.4479-7.715 2.719-14.63 11.49-15.83z"/>
<path d="m415 396.3c7.144-0.4744 10.87 5.627 11.6 10.44 0.4334 0.7639 0.6707 0.5486 0.8369-0.0423 0.3493-6.174 5.875-11.22 10.99-10.53 8.328 0.1083 13.39 9.375 11.97 17.22-1.738 9.582-6.9 15.35-10.81 21.29-4.421 6.152-10.37 15.04-12.29 19.32 0 0-6.048-9.205-13.92-20.03-5.262-7.239-9.473-15.08-9.865-21.84-0.4479-7.715 2.719-14.63 11.49-15.83z"/>
<path d="m305.4 652.7c7.144 0.4744 10.87-5.627 11.6-10.44 0.4334-0.7639 0.6707-0.5486 0.8369 0.0423 0.3493 6.174 5.875 11.22 10.99 10.53 8.328-0.1083 13.39-9.375 11.97-17.22-1.738-9.582-6.9-15.35-10.81-21.29-4.421-6.152-10.37-15.04-12.29-19.32 0 0-6.048 9.205-13.92 20.03-5.262 7.239-9.473 15.08-9.865 21.84-0.4479 7.715 2.719 14.63 11.49 15.83z"/>
<path d="m415 652.7c7.144 0.4744 10.87-5.627 11.6-10.44 0.4334-0.7639 0.6707-0.5486 0.8369 0.0423 0.3493 6.174 5.875 11.22 10.99 10.53 8.328-0.1083 13.39-9.375 11.97-17.22-1.738-9.582-6.9-15.35-10.81-21.29-4.421-6.152-10.37-15.04-12.29-19.32 0 0-6.048 9.205-13.92 20.03-5.262 7.239-9.473 15.08-9.865 21.84-0.4479 7.715 2.719 14.63 11.49 15.83z"/>
<path d="m456.4 621.4c-1.583 3.472-1.757 9.405 2.971 10.21 3.562 0.4584 5.012-1.198 5.3-3.742 0.1422-0.743 0.5617-0.7885 0.6948 0.0583 0.2044 2.609 2.787 4.133 4.806 3.75 5.527-0.9454 5.204-7.028 3.398-11.16-2.731-5.479-5.601-8.938-8.245-14.45-3.038 5.741-6.507 10.41-8.926 15.33z"/>
</g>
</svg>
