<svg xmlns:rdf="http://www.w3.org/1999/02/22-rdf-syntax-ns#" xmlns="http://www.w3.org/2000/svg" height="284.5" width="209.8" xmlns:cc="http://creativecommons.org/ns#" xmlns:dc="http://purl.org/dc/elements/1.1/">
<g transform="translate(-267.1 -383.9)">
<path d="m268.7 407.8 3.22-0.0283c0.6124 1.944 1.972 3.926 3.817 4.473 5.212 1.224 8.567-1.687 9.673-5.047 1.34-4.074-0.0303-9.795-3.618-11.83-2.976-1.686-7.395-0.264-9.422 3.339l-2.257-1.38 1.211-13.42h14.73v3.172h-11.94l-0.1873 5.591c2.565-1.802 6.518-1.785 9.085-0.5199 4.865 2.319 7.124 7.593 6.177 13.81-1.31 6.183-4.197 9.687-10.72 10.19-7.245 0.0626-9.804-4.918-9.775-8.351z"/>
<path d="m475.6 644.5-3.22 0.0283c-0.6124-1.944-1.972-3.926-3.817-4.473-5.212-1.224-8.567 1.687-9.673 5.047-1.34 4.074 0.0303 9.795 3.618 11.83 2.976 1.686 7.395 0.264 9.422-3.339l2.257 1.38-1.211 13.42h-14.73v-3.172h11.94l0.1873-5.591c-2.565 1.802-6.518 1.785-9.085 0.5199-4.865-2.319-7.124-7.593-6.177-13.81 1.31-6.183 4.197-9.687 10.72-10.19 7.245-0.0626 9.804 4.918 9.775 8.351z"/>
<path d="m364.7 554.8c2.879-5.776 4.976-11.7 5.348-18.04 0.3416-2.332-1.075-2.371-1.288-0.7286-4.076 15.59-25.76 11.37-25.02-3.297 0.605-11.89 12.42-14.45 18.58-10.56 2.434 1.433 2.296 0.5746 0.9679-0.9118-9.155-10.21-3.61-23.36 8.761-23.6 13.38 0.7934 16.85 14.87 8.644 23.15-1.021 0.9946-3.284 4.191 0.123 1.956 8.287-5.888 19.79 0.4428 19.55 9.521-0.4327 16.74-20.84 17.99-25.2 4.006-0.4198-1.55-1.629-2.329-1.295 0.3043 0.6049 4.767 1.856 11.95 5.437 18.21z"/>
<path d="m413.9 455.5c2.879-5.776 4.976-11.7 5.348-18.04 0.3416-2.332-1.075-2.371-1.288-0.7286-4.076 15.59-25.76 11.37-25.02-3.297 0.605-11.89 12.42-14.45 18.58-10.56 2.434 1.433 2.296 0.5746 0.9679-0.9118-9.155-10.21-3.61-23.36 8.761-23.6 13.38 0.7934 16.85 14.87 8.644 23.15-1.021 0.9946-3.284 4.191 0.123 1.956 8.287-5.888 19.79 0.4428 19.55 9.521-0.4327 16.74-20.84 17.99-25.2 4.006-0.4198-1.55-1.629-2.329-1.295 0.3043 0.6049 4.767 1.856 11.95 5.437 18.21z"/>
<path d="m315.3 455.5c2.879-5.776 4.976-11.7 5.348-18.04 0.3416-2.332-1.075-2.371-1.288-0.7286-4.076 15.59-25.76 11.37-25.02-3.297 0.605-11.89 12.42-14.45 18.58-10.56 2.434 1.433 2.296 0.5746 0.9679-0.9118-9.155-10.21-3.61-23.36 8.761-23.6 13.38 0.7934 16.85 14.87 8.644 23.15-1.021 0.9946-3.284 4.191 0.123 1.956 8.287-5.888 19.79 0.4428 19.55 9.521-0.4327 16.74-20.84 17.99-25.2 4.006-0.4198-1.55-1.629-2.329-1.295 0.3043 0.6049 4.767 1.856 11.95 5.437 18.21z"/>
<path d="m428.6 595c-2.879 5.775-4.976 11.7-5.348 18.04-0.3416 2.332 1.075 2.371 1.288 0.7286 4.076-15.59 25.76-11.37 25.02 3.296-0.605 11.89-12.42 14.45-18.58 10.56-2.434-1.433-2.296-0.5746-0.9679 0.9118 9.155 10.21 3.61 23.36-8.761 23.6-13.38-0.7934-16.85-14.87-8.644-23.15 1.021-0.9946 3.284-4.191-0.123-1.956-8.287 5.888-19.79-0.4428-19.55-9.521 0.4327-16.74 20.84-17.99 25.2-4.006 0.4198 1.55 1.629 2.329 1.295-0.3043-0.6049-4.767-1.856-11.95-5.437-18.21z"/>
<path d="m330 595c-2.879 5.775-4.976 11.7-5.348 18.04-0.3416 2.332 1.075 2.371 1.288 0.7286 4.076-15.59 25.76-11.37 25.02 3.296-0.605 11.89-12.42 14.45-18.58 10.56-2.434-1.433-2.296-0.5746-0.9679 0.9118 9.155 10.21 3.61 23.36-8.761 23.6-13.38-0.7934-16.85-14.87-8.644-23.15 1.021-0.9946 3.284-4.191-0.123-1.956-8.287 5.888-19.79-0.4428-19.55-9.521 0.4327-16.74 20.84-17.99 25.2-4.006 0.4198 1.55 1.629 2.329 1.295-0.3043-0.6049-4.767-1.856-11.95-5.437-18.21z"/>
<path d="m274.6 445.3c1.192-2.445 2.352-4.721 2.984-7.401 0.4192-2.528-0.4383-1.589-0.9252 0.0682-0.7212 2.297-2.723 3.344-4.58 3.369-3.371 0.0455-5.053-2.604-4.948-5.454-0.3681-2.999 2.671-5.12 4.962-4.957 1.722 0.1229 3.224 1.052 4.133 1.775 0.5963 0.3153 1.234 0.4546 0.3449-0.3585-1.678-1.833-3.077-2.964-3.046-5.711 0.029-2.579 2.234-5.268 5.155-5.184 3.652 0.1055 5.312 2.89 5.303 5.481-0.01 1.888-0.9536 3.626-2.411 4.703-0.9442 0.7661-0.6794 1.34 0.3977 0.6148 1.035-0.892 2.267-1.283 3.545-1.31 3.49-0.0547 4.855 2.961 4.655 5.764-0.1874 2.626-2.423 5.328-5.369 5.022-2.631-0.3015-4.013-2.51-4.805-4.777-0.2623-0.6951-0.676-0.8828-0.6645 0.1531 0.6077 5.057 2.492 8.204 2.505 8.202z"/>
<path d="m469.4 607.3c-1.192 2.445-2.352 4.721-2.984 7.401-0.4192 2.528 0.4383 1.589 0.9252-0.0682 0.7212-2.297 2.723-3.344 4.58-3.369 3.371-0.0455 5.053 2.604 4.948 5.454 0.3681 2.999-2.671 5.12-4.962 4.957-1.722-0.1229-3.224-1.052-4.133-1.775-0.5963-0.3153-1.234-0.4546-0.3449 0.3585 1.678 1.833 3.077 2.964 3.046 5.711-0.029 2.579-2.234 5.268-5.155 5.184-3.652-0.1055-5.312-2.89-5.303-5.481 0.01-1.888 0.9536-3.626 2.411-4.703 0.9442-0.7661 0.6794-1.34-0.3977-0.6148-1.035 0.892-2.267 1.283-3.545 1.31-3.49 0.0547-4.855-2.961-4.655-5.764 0.1874-2.626 2.423-5.328 5.369-5.022 2.631 0.3015 4.013 2.51 4.805 4.777 0.2623 0.6951 0.676 0.8828 0.6645-0.1531-0.6077-5.057-2.492-8.204-2.505-8.202z"/>
</g>
</svg>
