<svg xmlns:rdf="http://www.w3.org/1999/02/22-rdf-syntax-ns#" xmlns="http://www.w3.org/2000/svg" height="284.5" width="206.9" xmlns:cc="http://creativecommons.org/ns#" xmlns:dc="http://purl.org/dc/elements/1.1/">
<g transform="translate(-268.6 -383.9)" fill="#d40000">
<path d="m294.3 427.2c9.921-9.681 16.44-20.24 22.67-30.39 5.464 11.17 13.31 20.94 21.79 30.39-9.073 9.369-16.11 19.39-21.76 29.92-6.268-10.8-12.87-20.57-22.69-29.92z"/>
<path d="m294.3 623.8c9.921-9.681 16.44-20.24 22.67-30.39 5.464 11.17 13.31 20.94 21.79 30.39-9.073 9.369-16.11 19.39-21.76 29.92-6.268-10.8-12.87-20.57-22.69-29.92z"/>
<path d="m405 427.2c9.921-9.681 16.44-20.24 22.67-30.39 5.464 11.17 13.31 20.94 21.79 30.39-9.073 9.369-16.11 19.39-21.76 29.92-6.268-10.8-12.87-20.57-22.69-29.92z"/>
<path d="m349.7 526.4c9.921-9.681 16.44-20.24 22.67-30.39 5.464 11.17 13.31 20.94 21.79 30.39-9.073 9.369-16.11 19.39-21.76 29.92-6.268-10.8-12.87-20.57-22.69-29.92z"/>
<path d="m405 623.8c9.921-9.681 16.44-20.24 22.67-30.39 5.464 11.17 13.31 20.94 21.79 30.39-9.073 9.369-16.11 19.39-21.76 29.92-6.268-10.8-12.87-20.57-22.69-29.92z"/>
<path d="m456.2 619.3c4.064-3.966 6.733-8.29 9.285-12.45 2.238 4.576 5.451 8.579 8.925 12.45-3.717 3.838-6.597 7.941-8.913 12.26-2.567-4.422-5.27-8.427-9.296-12.26z"/>
<path d="m269.5 433.5c4.064-3.966 6.733-8.29 9.285-12.45 2.238 4.576 5.451 8.579 8.925 12.45-3.717 3.838-6.597 7.941-8.913 12.26-2.567-4.422-5.27-8.427-9.296-12.26z"/>
<path d="m268.6 407.8 3.22-0.0283c0.6124 1.944 1.972 3.926 3.817 4.473 5.212 1.224 8.567-1.687 9.673-5.047 1.34-4.074-0.0304-9.795-3.618-11.83-2.976-1.686-7.395-0.264-9.422 3.339l-2.257-1.38 1.211-13.42h14.73v3.172h-11.94l-0.1873 5.591c2.565-1.802 6.518-1.785 9.085-0.5199 4.865 2.319 7.124 7.593 6.177 13.81-1.31 6.183-4.197 9.687-10.72 10.19-7.245 0.0626-9.804-4.918-9.775-8.351z"/>
<path d="m475.5 644.5-3.22 0.0283c-0.6124-1.944-1.972-3.926-3.817-4.473-5.212-1.224-8.567 1.687-9.673 5.047-1.34 4.074 0.0303 9.795 3.618 11.83 2.976 1.686 7.395 0.264 9.422-3.339l2.257 1.38-1.211 13.42h-14.73v-3.172h11.94l0.1873-5.591c-2.565 1.802-6.518 1.785-9.085 0.5199-4.865-2.319-7.124-7.593-6.177-13.81 1.31-6.183 4.197-9.687 10.72-10.19 7.245-0.0626 9.804 4.918 9.775 8.351z"/>
</g>
</svg>
