<svg xmlns:rdf="http://www.w3.org/1999/02/22-rdf-syntax-ns#" xmlns="http://www.w3.org/2000/svg" height="285" width="207.4" xmlns:cc="http://creativecommons.org/ns#" xmlns:dc="http://purl.org/dc/elements/1.1/">
<g transform="translate(-268.4 -383.7)">
<path d="m268.7 406.3c-0.4084-2.747-0.4018-9.845-0.0661-11.94 1.029-6.429 3.532-9.369 7.723-10.33 4.069-0.9357 9.789 0.1059 11.04 5.482l-3.406 0.0629c-1.84-3.633-6.495-2.662-9.116-1.082-2.093 1.262-3.039 6.52-2.634 6.843-0.003 0 3.957-2.877 7.076-2.665 6.668 0.6818 9.417 6.356 9.185 11.72-0.2107 6.45-2.295 11.6-9.361 11.95-6.718-0.2535-9.8-3.85-10.44-10.03zm16.57-1.705c0.0371-4.475-2.034-7.823-5.95-8.192-3.916-0.3696-7.864 3.382-7.59 7.942 0.2743 4.577 2.079 8.432 6.826 8.41 5.106-0.0229 6.687-4.976 6.713-8.16z"/>
<path d="m475.4 646.1c0.4084 2.747 0.4018 9.845 0.0661 11.94-1.029 6.429-3.532 9.369-7.723 10.33-4.069 0.9357-9.789-0.1059-11.04-5.482l3.406-0.0629c1.84 3.633 6.495 2.662 9.116 1.082 2.093-1.262 3.039-6.52 2.634-6.843 0.003 0-3.957 2.877-7.076 2.665-6.668-0.6818-9.417-6.356-9.185-11.72 0.2107-6.45 2.295-11.6 9.361-11.95 6.718 0.2535 9.8 3.85 10.44 10.03zm-16.57 1.705c-0.0371 4.475 2.034 7.823 5.95 8.192 3.916 0.3696 7.864-3.382 7.59-7.942-0.2743-4.577-2.079-8.432-6.826-8.41-5.106 0.0229-6.687 4.976-6.713 8.16z"/>
<path d="m314.3 438.8c0.015-2.026-1.587-2.064-1.569-0.5858-0.1343 7.429-6.416 11.09-10.98 10.22-7.036-1.338-9.282-8.322-9.215-12.44 0.2072-12.7 12.99-22.06 24.52-38.33 8.45 14.69 22.4 26.23 23.22 37.59 1.098 15.1-18.01 20.73-20.74 3.133-0.176-1.243-1.64-1.801-1.526-0.065 0.4145 4.823-0.1749 6.831 5.266 18.72h-14.22c3.15-5.555 5.025-12.37 5.24-18.24z"/>
<path d="m425.8 438.8c0.015-2.026-1.587-2.064-1.569-0.5858-0.1343 7.429-6.416 11.09-10.98 10.22-7.036-1.338-9.282-8.322-9.215-12.44 0.2072-12.7 12.99-22.06 24.52-38.33 8.45 14.69 22.4 26.23 23.22 37.59 1.098 15.1-18.01 20.73-20.74 3.133-0.176-1.243-1.64-1.801-1.526-0.065 0.4145 4.823-0.1749 6.831 5.266 18.72h-14.22c3.15-5.555 5.025-12.37 5.24-18.24z"/>
<path d="m314.3 514.9c0.015 2.026-1.587 2.064-1.569 0.5858-0.1343-7.429-6.416-11.09-10.98-10.22-7.036 1.338-9.282 8.322-9.215 12.44 0.2072 12.7 12.99 22.06 24.52 38.33 8.45-14.69 22.4-26.23 23.22-37.59 1.098-15.1-18.01-20.73-20.74-3.133-0.176 1.243-1.64 1.801-1.526 0.065 0.4145-4.823-0.1749-6.831 5.266-18.72h-14.22c3.15 5.555 5.025 12.37 5.24 18.24z"/>
<path d="m425.8 514.9c0.015 2.026-1.587 2.064-1.569 0.5858-0.1343-7.429-6.416-11.09-10.98-10.22-7.036 1.338-9.282 8.322-9.215 12.44 0.2072 12.7 12.99 22.06 24.52 38.33 8.45-14.69 22.4-26.23 23.22-37.59 1.098-15.1-18.01-20.73-20.74-3.133-0.176 1.243-1.64 1.801-1.526 0.065 0.4145-4.823-0.1749-6.831 5.266-18.72h-14.22c3.15 5.555 5.025 12.37 5.24 18.24z"/>
<path d="m425.8 613.5c0.015 2.026-1.587 2.064-1.569 0.5858-0.1343-7.429-6.416-11.09-10.98-10.22-7.036 1.338-9.282 8.322-9.215 12.44 0.2072 12.7 12.99 22.06 24.52 38.33 8.45-14.69 22.4-26.23 23.22-37.59 1.098-15.1-18.01-20.73-20.74-3.133-0.176 1.243-1.64 1.801-1.526 0.065 0.4145-4.823-0.1749-6.831 5.266-18.72h-14.22c3.15 5.555 5.025 12.37 5.24 18.24z"/>
<path d="m314.3 613.5c0.015 2.026-1.587 2.064-1.569 0.5858-0.1343-7.429-6.416-11.09-10.98-10.22-7.036 1.338-9.282 8.322-9.215 12.44 0.2072 12.7 12.99 22.06 24.52 38.33 8.45-14.69 22.4-26.23 23.22-37.59 1.098-15.1-18.01-20.73-20.74-3.133-0.176 1.243-1.64 1.801-1.526 0.065 0.4145-4.823-0.1749-6.831 5.266-18.72h-14.22c3.15 5.555 5.025 12.37 5.24 18.24z"/>
<path d="m277.3 438.7c0.01-0.8715-0.8953-0.4646-1.018-0.1903-1.163 1.986-2.865 2.448-4.548 1.732-1.667-0.7092-2.604-2.28-2.454-4.522 0.3102-3.438 3.035-7.2 4.355-9.326 1.252-1.93 2.628-4.222 4.077-7.154 1.697 3.363 2.559 4.321 4.405 7.392 1.626 2.704 3.892 5.353 4.068 8.622 0 2.485-1.046 4.832-3.399 5.259-1.331 0.2419-2.579-0.4416-3.504-2.037-0.2818-0.4066-0.8488-0.1947-0.8393 0.3619 0.1652 2.093 0.9554 3.983 2.83 6.212h-6.887c1.41-1.576 2.849-3.704 2.915-6.349z"/>
<path d="m466.1 611.5c0.01 0.8715-0.8953 0.4646-1.018 0.1903-1.163-1.986-2.865-2.448-4.548-1.732-1.667 0.7092-2.604 2.28-2.454 4.522 0.3102 3.438 3.035 7.2 4.355 9.326 1.252 1.93 2.628 4.222 4.077 7.154 1.697-3.363 2.559-4.321 4.405-7.392 1.626-2.704 3.892-5.353 4.068-8.622 0-2.485-1.046-4.832-3.399-5.259-1.331-0.2419-2.579 0.4416-3.504 2.037-0.2818 0.4066-0.8487 0.1946-0.8392-0.3619 0.1651-2.093 0.9553-3.983 2.829-6.212h-6.887c1.41 1.576 2.849 3.704 2.915 6.349z"/>
</g>
</svg>
