<svg xmlns:rdf="http://www.w3.org/1999/02/22-rdf-syntax-ns#" xmlns="http://www.w3.org/2000/svg" height="282.8" width="211.3" xmlns:cc="http://creativecommons.org/ns#" xmlns:dc="http://purl.org/dc/elements/1.1/">
<g transform="translate(-266.4 -384.8)">
<path d="m266.5 407.8c0.1601-4.375 1.771-6.019 4.944-8.309-2.531-1.795-3.598-4.437-3.382-6.687 0.5215-5.447 4.81-8.172 9.485-8.053 4.675 0.1187 8.705 3.764 9.019 7.722 0.2733 3.443-0.7704 5.102-3.257 6.915 2.953 2.441 4.84 4.05 4.769 8.36-0.0716 4.31-3.806 9.44-10.31 9.597-6.509 0.1575-11.42-5.169-11.26-9.544zm18.17 0.0145c0.2792-3.962-3.288-6.635-7.313-6.677-3.922-0.0405-7.431 3.247-7.432 6.804 0 3.821 4.564 5.897 7.511 5.908 3.582 0.0132 6.994-2.622 7.234-6.035zm-1.288-14.17c0.0779-3.338-3.057-5.73-6.289-5.633-2.875 0.0856-5.921 2.241-5.923 5.031-0.003 3.49 3.462 5.232 6.417 5.298 2.68 0.0596 5.735-2.175 5.794-4.696z"/>
<path d="m476.1 644.5c-0.1601 4.375-1.771 6.018-4.944 8.309 2.531 1.795 3.598 4.437 3.382 6.687-0.5215 5.447-4.81 8.172-9.485 8.053-4.675-0.1187-8.705-3.764-9.019-7.722-0.2733-3.443 0.7704-5.102 3.257-6.915-2.953-2.441-4.84-4.05-4.769-8.36 0.0716-4.31 3.806-9.44 10.31-9.597 6.509-0.1575 11.42 5.169 11.26 9.544zm-18.17-0.0145c-0.2792 3.962 3.288 6.635 7.313 6.677 3.922 0.0405 7.431-3.247 7.432-6.804 0-3.821-4.564-5.897-7.511-5.908-3.582-0.0132-6.994 2.622-7.234 6.035zm1.288 14.17c-0.0779 3.338 3.057 5.73 6.289 5.633 2.875-0.0856 5.921-2.241 5.923-5.031 0.003-3.49-3.462-5.232-6.417-5.298-2.68-0.0596-5.735 2.175-5.794 4.696z"/>
<path d="m416.5 455.2c2.879-5.776 4.976-11.7 5.348-18.04 0.3416-2.332-1.075-2.371-1.288-0.7286-4.076 15.59-25.76 11.37-25.02-3.296 0.605-11.89 12.42-14.45 18.58-10.56 2.434 1.433 2.296 0.5746 0.9679-0.9118-9.155-10.21-3.61-23.36 8.761-23.6 13.38 0.7934 16.85 14.87 8.644 23.15-1.021 0.9946-3.284 4.191 0.123 1.956 8.287-5.888 19.79 0.4428 19.55 9.521-0.4327 16.74-20.84 17.99-25.2 4.006-0.4198-1.55-1.629-2.329-1.295 0.3043 0.6049 4.767 1.856 11.95 5.437 18.21z"/>
<path d="m416.5 555.5c2.879-5.776 4.976-11.7 5.348-18.04 0.3416-2.332-1.075-2.371-1.288-0.7286-4.076 15.59-25.76 11.37-25.02-3.296 0.605-11.89 12.42-14.45 18.58-10.56 2.434 1.433 2.296 0.5746 0.9679-0.9118-9.155-10.21-3.61-23.36 8.761-23.6 13.38 0.7934 16.85 14.87 8.644 23.15-1.021 0.9946-3.284 4.191 0.123 1.956 8.287-5.888 19.79 0.4428 19.55 9.521-0.4327 16.74-20.84 17.99-25.2 4.006-0.4198-1.55-1.629-2.329-1.295 0.3043 0.6049 4.767 1.856 11.95 5.437 18.21z"/>
<path d="m312.9 555.5c2.879-5.776 4.976-11.7 5.348-18.04 0.3416-2.332-1.075-2.371-1.288-0.7286-4.076 15.59-25.76 11.37-25.02-3.296 0.605-11.89 12.42-14.45 18.58-10.56 2.434 1.433 2.296 0.5746 0.9679-0.9118-9.155-10.21-3.61-23.36 8.761-23.6 13.38 0.7934 16.85 14.87 8.644 23.15-1.021 0.9946-3.284 4.191 0.123 1.956 8.287-5.888 19.79 0.4428 19.55 9.521-0.4327 16.74-20.84 17.99-25.2 4.006-0.4198-1.55-1.629-2.329-1.295 0.3043 0.6049 4.767 1.856 11.95 5.437 18.21z"/>
<path d="m363.1 505.4c2.879-5.776 4.976-11.7 5.348-18.04 0.3416-2.332-1.075-2.371-1.288-0.7286-4.076 15.59-25.76 11.37-25.02-3.296 0.605-11.89 12.42-14.45 18.58-10.56 2.434 1.433 2.296 0.5746 0.9679-0.9118-9.155-10.21-3.61-23.36 8.761-23.6 13.38 0.7934 16.85 14.87 8.644 23.15-1.021 0.9946-3.284 4.191 0.123 1.956 8.287-5.888 19.79 0.4428 19.55 9.521-0.4327 16.74-20.84 17.99-25.2 4.006-0.4198-1.55-1.629-2.329-1.295 0.3043 0.6049 4.767 1.856 11.95 5.437 18.21z"/>
<path d="m312.9 455.2c2.879-5.776 4.976-11.7 5.348-18.04 0.3416-2.332-1.075-2.371-1.288-0.7286-4.076 15.59-25.76 11.37-25.02-3.296 0.605-11.89 12.42-14.45 18.58-10.56 2.434 1.433 2.296 0.5746 0.9679-0.9118-9.155-10.21-3.61-23.36 8.761-23.6 13.38 0.7934 16.85 14.87 8.644 23.15-1.021 0.9946-3.284 4.191 0.123 1.956 8.287-5.888 19.79 0.4428 19.55 9.521-0.4327 16.74-20.84 17.99-25.2 4.006-0.4198-1.55-1.629-2.329-1.295 0.3043 0.6049 4.767 1.856 11.95 5.437 18.21z"/>
<path d="m431.2 596.9c-2.879 5.776-4.976 11.7-5.348 18.04-0.3416 2.332 1.075 2.371 1.288 0.7286 4.076-15.59 25.76-11.37 25.02 3.297-0.605 11.89-12.42 14.45-18.58 10.56-2.434-1.433-2.296-0.5746-0.9679 0.9118 9.155 10.21 3.61 23.36-8.761 23.6-13.38-0.7934-16.85-14.87-8.644-23.15 1.021-0.9946 3.284-4.191-0.123-1.956-8.287 5.888-19.79-0.4428-19.55-9.521 0.4327-16.74 20.84-17.99 25.2-4.006 0.4198 1.55 1.629 2.329 1.295-0.3043-0.6049-4.767-1.856-11.95-5.437-18.21z"/>
<path d="m377.8 547.6c-2.879 5.776-4.976 11.7-5.348 18.04-0.3416 2.332 1.075 2.371 1.288 0.7286 4.076-15.59 25.76-11.37 25.02 3.297-0.605 11.89-12.42 14.45-18.58 10.56-2.434-1.433-2.296-0.5746-0.9679 0.9118 9.155 10.21 3.61 23.36-8.761 23.6-13.38-0.7934-16.85-14.87-8.644-23.15 1.021-0.9946 3.284-4.191-0.123-1.956-8.287 5.888-19.79-0.4428-19.55-9.521 0.4327-16.74 20.84-17.99 25.2-4.006 0.4198 1.55 1.629 2.329 1.295-0.3043-0.6049-4.767-1.856-11.95-5.437-18.21z"/>
<path d="m327.6 596.9c-2.879 5.776-4.976 11.7-5.348 18.04-0.3416 2.332 1.075 2.371 1.288 0.7286 4.076-15.59 25.76-11.37 25.02 3.297-0.605 11.89-12.42 14.45-18.58 10.56-2.434-1.433-2.296-0.5746-0.9679 0.9118 9.155 10.21 3.61 23.36-8.761 23.6-13.38-0.7934-16.85-14.87-8.644-23.15 1.021-0.9946 3.284-4.191-0.123-1.956-8.287 5.888-19.79-0.4428-19.55-9.521 0.4327-16.74 20.84-17.99 25.2-4.006 0.4198 1.55 1.629 2.329 1.295-0.3043-0.6049-4.767-1.856-11.95-5.437-18.21z"/>
<path d="m273.9 447.6c1.192-2.445 2.352-4.721 2.984-7.401 0.4192-2.528-0.4383-1.589-0.9252 0.0682-0.7212 2.297-2.723 3.344-4.58 3.369-3.371 0.0455-5.053-2.604-4.948-5.454-0.3681-2.999 2.671-5.12 4.962-4.957 1.722 0.1229 3.224 1.052 4.133 1.775 0.5963 0.3153 1.234 0.4546 0.3449-0.3585-1.678-1.833-3.077-2.964-3.046-5.711 0.029-2.579 2.234-5.268 5.155-5.184 3.652 0.1055 5.312 2.89 5.303 5.481-0.01 1.888-0.9536 3.626-2.411 4.703-0.9442 0.7661-0.6794 1.34 0.3977 0.6148 1.035-0.892 2.267-1.283 3.545-1.31 3.49-0.0547 4.855 2.961 4.655 5.764-0.1874 2.626-2.423 5.328-5.369 5.022-2.631-0.3015-4.013-2.51-4.805-4.777-0.2623-0.6951-0.676-0.8828-0.6645 0.1531 0.6077 5.057 2.492 8.204 2.505 8.202z"/>
<path d="m470.2 608.7c-1.192 2.445-2.352 4.721-2.984 7.401-0.4192 2.528 0.4383 1.588 0.9252-0.068 0.7212-2.297 2.723-3.344 4.58-3.369 3.371-0.045 5.053 2.604 4.948 5.454 0.3681 2.999-2.671 5.12-4.962 4.957-1.722-0.1229-3.224-1.052-4.133-1.775-0.5963-0.3153-1.234-0.4546-0.3449 0.3585 1.678 1.833 3.077 2.964 3.046 5.711-0.029 2.579-2.234 5.268-5.155 5.184-3.652-0.1055-5.312-2.89-5.303-5.481 0.01-1.888 0.9536-3.626 2.411-4.703 0.9442-0.7661 0.6794-1.34-0.3977-0.6149-1.035 0.892-2.267 1.283-3.545 1.31-3.49 0.055-4.855-2.962-4.655-5.764 0.1874-2.626 2.423-5.328 5.369-5.022 2.631 0.3015 4.013 2.51 4.805 4.777 0.2623 0.6951 0.676 0.8828 0.6645-0.1531-0.6077-5.057-2.492-8.204-2.505-8.202z"/>
</g>
</svg>
