<svg xmlns:rdf="http://www.w3.org/1999/02/22-rdf-syntax-ns#" xmlns="http://www.w3.org/2000/svg" height="285.6" width="207.1" xmlns:cc="http://creativecommons.org/ns#" xmlns:dc="http://purl.org/dc/elements/1.1/">
<g transform="translate(-268.5 -383.4)" fill="#d40000">
<path d="m293.1 427.9c9.921-9.681 16.44-20.24 22.67-30.39 5.464 11.17 13.31 20.94 21.79 30.39-9.073 9.369-16.11 19.39-21.76 29.92-6.268-10.8-12.87-20.57-22.69-29.92z"/>
<path d="m293.1 493.3c9.921-9.681 16.44-20.24 22.67-30.39 5.464 11.17 13.31 20.94 21.79 30.39-9.073 9.369-16.11 19.39-21.76 29.92-6.268-10.8-12.87-20.57-22.69-29.92z"/>
<path d="m293.1 560.2c9.921-9.681 16.44-20.24 22.67-30.39 5.464 11.17 13.31 20.94 21.79 30.39-9.073 9.369-16.11 19.39-21.76 29.92-6.268-10.8-12.87-20.57-22.69-29.92z"/>
<path d="m293.1 625.3c9.921-9.681 16.44-20.24 22.67-30.39 5.464 11.17 13.31 20.94 21.79 30.39-9.073 9.369-16.11 19.39-21.76 29.92-6.268-10.8-12.87-20.57-22.69-29.92z"/>
<path d="m349.6 526.4c9.921-9.681 16.44-20.24 22.67-30.39 5.464 11.17 13.31 20.94 21.79 30.39-9.073 9.369-16.11 19.39-21.76 29.92-6.268-10.8-12.87-20.57-22.69-29.92z"/>
<path d="m404.6 427.9c9.921-9.681 16.44-20.24 22.67-30.39 5.464 11.17 13.31 20.94 21.79 30.39-9.073 9.369-16.11 19.39-21.76 29.92-6.268-10.8-12.87-20.57-22.69-29.92z"/>
<path d="m404.6 493.3c9.921-9.681 16.44-20.24 22.67-30.39 5.464 11.17 13.31 20.94 21.79 30.39-9.073 9.369-16.11 19.39-21.76 29.92-6.268-10.8-12.87-20.57-22.69-29.92z"/>
<path d="m404.6 560.2c9.921-9.681 16.44-20.24 22.67-30.39 5.464 11.17 13.31 20.94 21.79 30.39-9.073 9.369-16.11 19.39-21.76 29.92-6.268-10.8-12.87-20.57-22.69-29.92z"/>
<path d="m404.6 625.3c9.921-9.681 16.44-20.24 22.67-30.39 5.464 11.17 13.31 20.94 21.79 30.39-9.073 9.369-16.11 19.39-21.76 29.92-6.268-10.8-12.87-20.57-22.69-29.92z"/>
<path d="m457.4 617.1c4.064-3.966 6.733-8.29 9.285-12.45 2.238 4.576 5.451 8.579 8.925 12.45-3.717 3.838-6.597 7.941-8.913 12.26-2.567-4.422-5.27-8.427-9.296-12.26z"/>
<path d="m268.6 431.2c4.064-3.966 6.733-8.29 9.285-12.45 2.238 4.576 5.451 8.579 8.925 12.45-3.717 3.838-6.597 7.941-8.913 12.26-2.567-4.422-5.27-8.427-9.296-12.26z"/>
<path d="m268.7 409.6 3.027-0.942c1.142 2.995 3.45 3.879 5.892 3.689 4.382-0.3408 5.836-5.149 6.165-9.399-1.707 1.774-4.274 2.676-6.46 2.588-6.982-0.3693-8.769-5.855-8.835-11.6-0.194-4.846 1.848-8.356 5.348-9.963 1.852-0.8164 6.095-0.8165 7.959 0.1486 4.282 2.216 5.867 6.049 5.579 15.19 0.005 7.524-1.625 16.29-9.837 16.47-4.748 0.6442-8.352-2.98-8.839-6.185zm11.89-8.244c1.425-0.8855 2.229-1.716 2.868-2.962 0.5243-1.023 0.7017-1.553 0.5522-3.671-0.385-5.455-3.299-8.548-7.525-7.933-2.357 0.3426-3.643 1.638-4.383 4.048-1.366 4.449 0.3655 9.657 3.609 10.86 1.463 0.541 3.715 0.3846 4.879-0.3389z"/>
<path d="m474.7 642.7-3.027 0.942c-1.142-2.995-3.45-3.879-5.892-3.689-4.382 0.3408-5.836 5.149-6.165 9.399 1.707-1.774 4.274-2.676 6.46-2.588 6.982 0.3693 8.769 5.855 8.835 11.6 0.1939 4.846-1.848 8.356-5.348 9.963-1.852 0.8164-6.095 0.8165-7.959-0.1486-4.282-2.216-5.867-6.049-5.579-15.19-0.005-7.524 1.625-16.29 9.837-16.48 4.748-0.6442 8.352 2.98 8.839 6.185zm-11.89 8.244c-1.425 0.8855-2.229 1.716-2.868 2.962-0.5243 1.023-0.7017 1.553-0.5522 3.671 0.385 5.455 3.299 8.548 7.525 7.933 2.357-0.3426 3.643-1.638 4.383-4.048 1.366-4.449-0.3655-9.657-3.609-10.86-1.463-0.541-3.715-0.3846-4.879 0.3389z"/>
</g>
</svg>
