<svg xmlns:rdf="http://www.w3.org/1999/02/22-rdf-syntax-ns#" xmlns="http://www.w3.org/2000/svg" height="311.8" width="223.2" xmlns:cc="http://creativecommons.org/ns#" xmlns:dc="http://purl.org/dc/elements/1.1/">
<g transform="translate(-260.4 -370.3)">
<g transform="translate(-5774 3117)">
<rect rx="10.63" ry="10.63" height="311.8" width="223.2" y="-2747" x="6035" fill="#fff"/>
<g transform="matrix(.3011 0 0 .3011 5731 -1948)" fill="#d40000">
<path d="m1034-2500v-9.091h8.839l18.81-97.23h10.7l20.74 97.23h7.134v9.091h-24.31v-9.091h6.566l-2.616-14.9h-24.53l-1.894 14.9h6.566v9.091zm43.77-34.6-10.66-52.05-9.987 52.05z"/>
<path d="m1727-1770v9.091h-8.839l-18.81 97.23h-10.7l-20.74-97.23h-7.134v-9.091h24.31v9.091h-6.566l2.616 14.9h24.53l1.894-14.9h-6.566v-9.091zm-43.77 34.6 10.66 52.05 9.987-52.05z"/>
</g>
</g>
<g fill="#d40000">
<path d="m268.7 431c-1.583-3.472-1.757-9.405 2.971-10.21 3.562-0.4584 5.012 1.198 5.3 3.742 0.1422 0.743 0.5617 0.7885 0.6948-0.0583 0.2044-2.609 2.787-4.133 4.806-3.75 5.527 0.9454 5.204 7.028 3.398 11.16-2.731 5.479-5.601 8.938-8.245 14.45-3.038-5.741-6.507-10.41-8.926-15.33z"/>
<path d="m360 497.4c7.144-0.4744 10.87 5.627 11.6 10.44 0.4334 0.7639 0.6707 0.5486 0.8369-0.0423 0.3493-6.174 5.875-11.22 10.99-10.53 8.328 0.1083 13.39 9.375 11.97 17.22-1.738 9.582-6.9 15.35-10.81 21.29-4.421 6.152-10.37 15.04-12.29 19.32 0 0-6.048-9.205-13.92-20.03-5.262-7.239-9.473-15.08-9.865-21.84-0.4479-7.715 2.719-14.63 11.49-15.83z"/>
<path d="m457.1 621.7c-1.583 3.472-1.757 9.405 2.971 10.21 3.562 0.4584 5.012-1.198 5.3-3.742 0.1422-0.743 0.5617-0.7885 0.6948 0.0583 0.2044 2.609 2.787 4.133 4.806 3.75 5.527-0.9454 5.204-7.028 3.398-11.16-2.731-5.479-5.601-8.938-8.245-14.45-3.038 5.741-6.507 10.41-8.926 15.33z"/>
</g>
</g>
</svg>
