<svg xmlns:rdf="http://www.w3.org/1999/02/22-rdf-syntax-ns#" xmlns="http://www.w3.org/2000/svg" height="140" width="120" xmlns:cc="http://creativecommons.org/ns#" xmlns:dc="http://purl.org/dc/elements/1.1/" viewbox="0 0 120 140">
<g>
<circle cx="31" transform="translate(-26,-4)" cy="31" r="5" fill="#f0f"/>
<circle cx="31" transform="translate(84,-4)" cy="31" r="5" fill="#ff0"/>
<circle cx="31" transform="translate(28.8,-26)" cy="31" r="5" fill="#0f0"/>
</g>
<path fill="#00f" d="m55.4 140c-1.279-3.135-2.62-7.41-8.269-8.024-8.284-0.6076-15.81-1.214-14.78-10.3 14.95-0.1204 17.98-14.73 14.06-14.58-7.352 0.1061-3.629 6.472-15.14 7.528-0.0705-2.206 0.208-4.711-0.5887-5.813-2.803-3.071-9.907-0.0483-11.23-4.26 0.4147-4.701 7.518-14.32 8.901-15.4-1.611-3.736-1.593-16.97 1.995-18.7h60.98c5.627 17.41-5.509 26.45-5.975 34.59 0.1934 4.14 5.515 9.111 7.67 11.02z"/>
<path fill="#f00" d="m59.8 11.37c-3.14 9.91-7.94 24.44-10.88 34.41-7.39-6.83-17.76-19.1-37.28-17.85 17.04 6.23 18.35 20.47 18.35 35.56h59.62c0-15.09 1.313-29.33 18.34-35.56-19.56-1.25-29.93 11.02-37.33 17.85-2.93-9.97-7.73-24.51-10.87-34.41z"/>
</svg>
