<svg xmlns:rdf="http://www.w3.org/1999/02/22-rdf-syntax-ns#" xmlns="http://www.w3.org/2000/svg" height="284.1" width="208" xmlns:cc="http://creativecommons.org/ns#" xmlns:dc="http://purl.org/dc/elements/1.1/">
<g transform="translate(-268.1 -384.1)" fill="#d40000">
<path d="m293.3 427.6c9.921-9.681 16.44-20.24 22.67-30.39 5.464 11.17 13.31 20.94 21.79 30.39-9.073 9.369-16.11 19.39-21.76 29.92-6.268-10.8-12.87-20.57-22.69-29.92z"/>
<path d="m293.3 492.9c9.921-9.681 16.44-20.24 22.67-30.39 5.464 11.17 13.31 20.94 21.79 30.39-9.073 9.369-16.11 19.39-21.76 29.92-6.268-10.8-12.87-20.57-22.69-29.92z"/>
<path d="m293.3 559.8c9.921-9.681 16.44-20.24 22.67-30.39 5.464 11.17 13.31 20.94 21.79 30.39-9.073 9.369-16.11 19.39-21.76 29.92-6.268-10.8-12.87-20.57-22.69-29.92z"/>
<path d="m293.3 624.9c9.921-9.681 16.44-20.24 22.67-30.39 5.464 11.17 13.31 20.94 21.79 30.39-9.073 9.369-16.11 19.39-21.76 29.92-6.268-10.8-12.87-20.57-22.69-29.92z"/>
<path d="m349.5 461.9c9.921-9.681 16.44-20.24 22.67-30.39 5.464 11.17 13.31 20.94 21.79 30.39-9.073 9.369-16.11 19.39-21.76 29.92-6.268-10.8-12.87-20.57-22.69-29.92z"/>
<path d="m349 590.3c9.921-9.681 16.44-20.24 22.67-30.39 5.464 11.17 13.31 20.94 21.79 30.39-9.073 9.369-16.11 19.39-21.76 29.92-6.268-10.8-12.87-20.57-22.69-29.92z"/>
<path d="m404.8 427.6c9.921-9.681 16.44-20.24 22.67-30.39 5.464 11.17 13.31 20.94 21.79 30.39-9.073 9.369-16.11 19.39-21.76 29.92-6.268-10.8-12.87-20.57-22.69-29.92z"/>
<path d="m404.8 492.9c9.921-9.681 16.44-20.24 22.67-30.39 5.464 11.17 13.31 20.94 21.79 30.39-9.073 9.369-16.11 19.39-21.76 29.92-6.268-10.8-12.87-20.57-22.69-29.92z"/>
<path d="m404.8 559.8c9.921-9.681 16.44-20.24 22.67-30.39 5.464 11.17 13.31 20.94 21.79 30.39-9.073 9.369-16.11 19.39-21.76 29.92-6.268-10.8-12.87-20.57-22.69-29.92z"/>
<path d="m404.8 624.9c9.921-9.681 16.44-20.24 22.67-30.39 5.464 11.17 13.31 20.94 21.79 30.39-9.073 9.369-16.11 19.39-21.76 29.92-6.268-10.8-12.87-20.57-22.69-29.92z"/>
<path d="m457.3 618.9c4.064-3.966 6.733-8.29 9.285-12.45 2.238 4.576 5.451 8.579 8.925 12.45-3.717 3.838-6.597 7.941-8.913 12.26-2.567-4.422-5.27-8.427-9.296-12.26z"/>
<path d="m268.5 433c4.064-3.966 6.733-8.29 9.285-12.45 2.238 4.576 5.451 8.579 8.925 12.45-3.717 3.838-6.597 7.941-8.913 12.26-2.567-4.422-5.27-8.427-9.296-12.26z"/>
<path d="m268.1 415.6v-31.51h3.111v31.51z"/>
<path d="m280.4 384.1c-2.994 0-5.401 2.687-5.401 6.022v19.46c0 3.336 2.407 6.022 5.401 6.022h1.745c2.994 0 5.406-2.687 5.406-6.022v-19.46c0-3.336-2.412-6.022-5.406-6.022h-1.745zm0.901 2.978c1.769 0 3.191 1.337 3.191 3.002v19.72c0 1.665-1.423 3.007-3.191 3.007s-3.191-1.342-3.191-3.007v-19.72c0-1.665 1.423-3.002 3.191-3.002z"/>
<path d="m476 636.7v31.51h-3.111v-31.51z"/>
<path d="m463.7 668.2c2.994 0 5.401-2.687 5.401-6.022v-19.46c0-3.336-2.407-6.022-5.401-6.022h-1.745c-2.994 0-5.406 2.687-5.406 6.022v19.46c0 3.336 2.412 6.022 5.406 6.022h1.745zm-0.901-2.978c-1.768 0-3.191-1.337-3.191-3.002v-19.72c0-1.665 1.423-3.007 3.191-3.007s3.191 1.342 3.191 3.007v19.72c0 1.665-1.423 3.002-3.191 3.002z"/>
</g>
</svg>
