<svg xmlns:rdf="http://www.w3.org/1999/02/22-rdf-syntax-ns#" xmlns="http://www.w3.org/2000/svg" height="287.5" width="212.6" xmlns:cc="http://creativecommons.org/ns#" xmlns:dc="http://purl.org/dc/elements/1.1/" viewbox="0 0 212.59842 287.51547">
<g transform="translate(-265.7 -382.4)">
<g transform="translate(-1161 92.14)">
<g transform="matrix(1.012 0 0 1.012 -18.71 -5.214)">
<path d="m2837-2520 8.461-6.112c7.354 11.74 15.56 19.47 28.12 18.14 18.85-1.267 26.65-20.66 22.7-35.28-3.809-13.1-19.42-19.5-31.82-12.5-2.924 1.65-6.305 3.688-6.305 3.688l-4.414-7.194 29.11-33.86h-31.59v14.02h-12.12v-25.13h61.75v8.529s-16.54 16.84-22.01 26.07c13.47 0.4898 24.32 8.864 28.21 22.12 2.28 6.97 1.255 22.92-1.716 29.79-4.961 11.46-18.55 20.76-30.96 21.3-20.83 1.376-31.89-12.96-37.41-23.56z" transform="matrix(.3011 0 0 .3011 575.6 1076)"/>
<path d="m3522-1745-8.461 6.112c-7.354-11.74-15.56-19.47-28.12-18.14-18.85 1.267-26.65 20.66-22.7 35.28 3.809 13.1 19.42 19.5 31.82 12.5 2.924-1.65 6.305-3.375 6.305-3.375l5.226 6.757-29.92 33.99h31.59v-14.02h12.12v25.13h-61.75v-8.529s16.54-16.84 22.01-26.07c-13.47-0.4898-24.32-8.864-28.21-22.12-2.28-6.97-1.255-22.92 1.716-29.79 4.961-11.46 18.55-20.76 30.96-21.3 20.83-1.376 31.89 12.96 37.41 23.56z" transform="matrix(.3011 0 0 .3011 575.6 1076)"/>
<path d="m1525 462.6c2.879-5.776 4.976-11.7 5.348-18.04 0.3416-2.332-1.075-2.371-1.288-0.7286-4.076 15.59-25.76 11.37-25.02-3.297 0.605-11.89 12.42-14.45 18.58-10.56 2.434 1.433 2.296 0.5746 0.9679-0.9118-9.155-10.21-3.61-23.36 8.761-23.6 13.38 0.7934 16.85 14.87 8.644 23.15-1.021 0.9946-3.284 4.191 0.123 1.956 8.287-5.888 19.79 0.4428 19.55 9.521-0.4327 16.74-20.84 17.99-25.2 4.006-0.4198-1.55-1.629-2.329-1.295 0.3043 0.6049 4.767 1.856 11.95 5.437 18.21z"/>
<path d="m1525 364.2c2.879-5.776 4.976-11.7 5.348-18.04 0.3416-2.332-1.075-2.371-1.288-0.7286-4.076 15.59-25.76 11.37-25.02-3.297 0.605-11.89 12.42-14.45 18.58-10.56 2.434 1.433 2.296 0.5746 0.9679-0.9118-9.155-10.21-3.61-23.36 8.761-23.6 13.38 0.7934 16.85 14.87 8.644 23.15-1.021 0.9946-3.284 4.191 0.123 1.956 8.287-5.888 19.79 0.4428 19.55 9.521-0.4327 16.74-20.84 17.99-25.2 4.006-0.4198-1.55-1.629-2.329-1.295 0.3043 0.6049 4.767 1.856 11.95 5.437 18.21z"/>
<path d="m1540 504.2c-2.879 5.775-4.976 11.7-5.348 18.04-0.3416 2.332 1.075 2.371 1.288 0.7286 4.076-15.59 25.76-11.37 25.02 3.296-0.605 11.89-12.42 14.45-18.58 10.56-2.434-1.433-2.296-0.5746-0.9679 0.9118 9.155 10.21 3.61 23.36-8.761 23.6-13.38-0.7934-16.85-14.87-8.644-23.15 1.021-0.9946 3.284-4.191-0.123-1.956-8.287 5.888-19.79-0.4428-19.55-9.521 0.4327-16.74 20.84-17.99 25.2-4.006 0.4198 1.55 1.629 2.329 1.295-0.3043-0.6049-4.767-1.856-11.95-5.437-18.21z"/>
<path d="m1436 353.2c1.192-2.445 2.352-4.721 2.984-7.401 0.4192-2.528-0.4383-1.589-0.9252 0.0682-0.7212 2.297-2.723 3.344-4.58 3.369-3.371 0.0455-5.053-2.604-4.948-5.454-0.3681-2.999 2.671-5.12 4.962-4.957 1.722 0.1229 3.224 1.052 4.133 1.775 0.5963 0.3153 1.234 0.4546 0.3449-0.3585-1.678-1.833-3.077-2.964-3.046-5.711 0.029-2.579 2.234-5.268 5.155-5.184 3.652 0.1055 5.312 2.89 5.303 5.481-0.01 1.888-0.9536 3.626-2.411 4.703-0.9442 0.7661-0.6794 1.34 0.3977 0.6148 1.035-0.892 2.267-1.283 3.545-1.31 3.49-0.0547 4.855 2.961 4.655 5.764-0.1874 2.626-2.423 5.328-5.369 5.022-2.631-0.3015-4.013-2.51-4.805-4.777-0.2623-0.6951-0.676-0.8828-0.6645 0.1531 0.6077 5.057 2.492 8.204 2.505 8.202z"/>
<path d="m1631 515.6c-1.192 2.445-2.352 4.721-2.984 7.401-0.4192 2.528 0.4383 1.589 0.9252-0.0682 0.7212-2.297 2.723-3.344 4.58-3.369 3.371-0.0455 5.053 2.604 4.948 5.454 0.3681 2.999-2.671 5.12-4.962 4.957-1.722-0.1229-3.224-1.052-4.133-1.775-0.5963-0.3153-1.234-0.4546-0.3449 0.3585 1.678 1.833 3.077 2.964 3.046 5.711-0.029 2.579-2.234 5.268-5.155 5.184-3.652-0.1055-5.312-2.89-5.303-5.481 0.01-1.888 0.9536-3.626 2.411-4.703 0.9442-0.7661 0.6794-1.34-0.3977-0.6148-1.035 0.892-2.267 1.283-3.545 1.31-3.49 0.0547-4.855-2.961-4.655-5.764 0.1874-2.626 2.423-5.328 5.369-5.022 2.631 0.3015 4.013 2.51 4.805 4.777 0.2623 0.6951 0.676 0.8828 0.6645-0.1531-0.6077-5.057-2.492-8.204-2.505-8.202z"/>
</g>
</g>
</g>
</svg>
