<svg xmlns:rdf="http://www.w3.org/1999/02/22-rdf-syntax-ns#" xmlns="http://www.w3.org/2000/svg" height="284.5" width="206.9" xmlns:cc="http://creativecommons.org/ns#" xmlns:dc="http://purl.org/dc/elements/1.1/">
<g transform="translate(-268.6 -383.9)" fill="#d40000">
<path d="m268.6 407.8 3.22-0.0283c0.6124 1.944 1.972 3.926 3.817 4.473 5.212 1.224 8.567-1.687 9.673-5.047 1.34-4.074-0.0304-9.795-3.618-11.83-2.976-1.686-7.395-0.264-9.422 3.339l-2.257-1.38 1.211-13.42h14.73v3.172h-11.94l-0.1873 5.591c2.565-1.802 6.518-1.785 9.085-0.5199 4.865 2.319 7.124 7.593 6.177 13.81-1.31 6.183-4.197 9.687-10.72 10.19-7.245 0.0626-9.804-4.918-9.775-8.351z"/>
<path d="m475.5 644.5-3.22 0.0283c-0.6124-1.944-1.972-3.926-3.817-4.473-5.212-1.224-8.567 1.687-9.673 5.047-1.34 4.074 0.0303 9.795 3.618 11.83 2.976 1.686 7.395 0.264 9.422-3.339l2.257 1.38-1.211 13.42h-14.73v-3.172h11.94l0.1873-5.591c-2.565 1.802-6.518 1.785-9.085 0.5199-4.865-2.319-7.124-7.593-6.177-13.81 1.31-6.183 4.197-9.687 10.72-10.19 7.245-0.0626 9.804 4.918 9.775 8.351z"/>
<path d="m269.9 430.9c-1.583-3.472-1.757-9.405 2.971-10.21 3.562-0.4584 5.012 1.198 5.3 3.742 0.1422 0.743 0.5617 0.7885 0.6948-0.0583 0.2044-2.609 2.787-4.133 4.806-3.75 5.527 0.9454 5.204 7.028 3.398 11.16-2.731 5.479-5.601 8.938-8.245 14.45-3.038-5.741-6.507-10.41-8.926-15.33z"/>
<path d="m304.5 398.2c7.144-0.4744 10.87 5.627 11.6 10.44 0.4334 0.7639 0.6707 0.5486 0.8369-0.0423 0.3493-6.174 5.875-11.22 10.99-10.53 8.328 0.1083 13.39 9.375 11.97 17.22-1.738 9.582-6.9 15.35-10.81 21.29-4.421 6.152-10.37 15.04-12.29 19.32 0 0-6.048-9.205-13.92-20.03-5.262-7.239-9.473-15.08-9.865-21.84-0.4479-7.715 2.719-14.63 11.49-15.83z"/>
<path d="m415.2 398.2c7.144-0.4744 10.87 5.627 11.6 10.44 0.4334 0.7639 0.6707 0.5486 0.8369-0.0423 0.3493-6.174 5.875-11.22 10.99-10.53 8.328 0.1083 13.39 9.375 11.97 17.22-1.738 9.582-6.9 15.35-10.81 21.29-4.421 6.152-10.37 15.04-12.29 19.32 0 0-6.048-9.205-13.92-20.03-5.262-7.239-9.473-15.08-9.865-21.84-0.4479-7.715 2.719-14.63 11.49-15.83z"/>
<path d="m360 497.4c7.144-0.4744 10.87 5.627 11.6 10.44 0.4334 0.7639 0.6707 0.5486 0.8369-0.0423 0.3493-6.174 5.875-11.22 10.99-10.53 8.328 0.1083 13.39 9.375 11.97 17.22-1.738 9.582-6.9 15.35-10.81 21.29-4.421 6.152-10.37 15.04-12.29 19.32 0 0-6.048-9.205-13.92-20.03-5.262-7.239-9.473-15.08-9.865-21.84-0.4479-7.715 2.719-14.63 11.49-15.83z"/>
<path d="m304.5 652.3c7.144 0.4744 10.87-5.627 11.6-10.44 0.4334-0.7639 0.6707-0.5486 0.8369 0.0423 0.3493 6.174 5.875 11.22 10.99 10.53 8.328-0.1083 13.39-9.375 11.97-17.22-1.738-9.582-6.9-15.35-10.81-21.29-4.421-6.152-10.37-15.04-12.29-19.32 0 0-6.048 9.205-13.92 20.03-5.262 7.239-9.473 15.08-9.865 21.84-0.4479 7.715 2.719 14.63 11.49 15.83z"/>
<path d="m415.2 652.3c7.144 0.4744 10.87-5.627 11.6-10.44 0.4334-0.7639 0.6707-0.5486 0.8369 0.0423 0.3493 6.174 5.875 11.22 10.99 10.53 8.328-0.1083 13.39-9.375 11.97-17.22-1.738-9.582-6.9-15.35-10.81-21.29-4.421-6.152-10.37-15.04-12.29-19.32 0 0-6.048 9.205-13.92 20.03-5.262 7.239-9.473 15.08-9.865 21.84-0.4479 7.715 2.719 14.63 11.49 15.83z"/>
<path d="m456.7 621.7c-1.583 3.472-1.757 9.405 2.971 10.21 3.562 0.4584 5.012-1.198 5.3-3.742 0.1422-0.743 0.5617-0.7885 0.6948 0.0583 0.2044 2.609 2.787 4.133 4.806 3.75 5.527-0.9454 5.204-7.028 3.398-11.16-2.731-5.479-5.601-8.938-8.245-14.45-3.038 5.741-6.507 10.41-8.926 15.33z"/>
</g>
</svg>
