<svg xmlns:rdf="http://www.w3.org/1999/02/22-rdf-syntax-ns#" xmlns="http://www.w3.org/2000/svg" height="282.6" width="208.5" xmlns:cc="http://creativecommons.org/ns#" xmlns:dc="http://purl.org/dc/elements/1.1/">
<g transform="translate(-267.8 -384.9)" fill="#d40000">
<path d="m293.4 429.1c9.921-9.681 16.44-20.24 22.67-30.39 5.464 11.17 13.31 20.94 21.79 30.39-9.073 9.369-16.11 19.39-21.76 29.92-6.268-10.8-12.87-20.57-22.69-29.92z"/>
<path d="m293.4 529.3c9.921-9.681 16.44-20.24 22.67-30.39 5.464 11.17 13.31 20.94 21.79 30.39-9.073 9.369-16.11 19.39-21.76 29.92-6.268-10.8-12.87-20.57-22.69-29.92z"/>
<path d="m293.4 627.9c9.921-9.681 16.44-20.24 22.67-30.39 5.464 11.17 13.31 20.94 21.79 30.39-9.073 9.369-16.11 19.39-21.76 29.92-6.268-10.8-12.87-20.57-22.69-29.92z"/>
<path d="m349.9 479.2c9.921-9.681 16.44-20.24 22.67-30.39 5.464 11.17 13.31 20.94 21.79 30.39-9.073 9.369-16.11 19.39-21.76 29.92-6.268-10.8-12.87-20.57-22.69-29.92z"/>
<path d="m405 429.1c9.921-9.681 16.44-20.24 22.67-30.39 5.464 11.17 13.31 20.94 21.79 30.39-9.073 9.369-16.11 19.39-21.76 29.92-6.268-10.8-12.87-20.57-22.69-29.92z"/>
<path d="m405 529.3c9.921-9.681 16.44-20.24 22.67-30.39 5.464 11.17 13.31 20.94 21.79 30.39-9.073 9.369-16.11 19.39-21.76 29.92-6.268-10.8-12.87-20.57-22.69-29.92z"/>
<path d="m405 627.9c9.921-9.681 16.44-20.24 22.67-30.39 5.464 11.17 13.31 20.94 21.79 30.39-9.073 9.369-16.11 19.39-21.76 29.92-6.268-10.8-12.87-20.57-22.69-29.92z"/>
<path d="m457.6 620.7c4.064-3.966 6.733-8.29 9.285-12.45 2.238 4.576 5.451 8.579 8.925 12.45-3.717 3.838-6.597 7.941-8.913 12.26-2.567-4.422-5.27-8.427-9.296-12.26z"/>
<path d="m268.8 434.8c4.064-3.966 6.733-8.29 9.285-12.45 2.238 4.576 5.451 8.579 8.925 12.45-3.717 3.838-6.597 7.941-8.913 12.26-2.567-4.422-5.27-8.427-9.296-12.26z"/>
<path d="m272.8 416.8c2.132-11.09 4.409-19.41 10.38-28.45h-12.13v3.89h-3.226v-7.331h17.75l2.188 3.441c-6.341 6.797-12.15 28.77-11.12 28.45z"/>
<path d="m471.3 635.6c-2.132 11.09-4.409 19.41-10.38 28.45h12.13v-3.89h3.226v7.331h-17.75l-2.188-3.441c6.341-6.797 12.15-28.77 11.12-28.45z"/>
</g>
</svg>
