<svg xmlns:rdf="http://www.w3.org/1999/02/22-rdf-syntax-ns#" xmlns="http://www.w3.org/2000/svg" height="282.8" width="209.5" xmlns:cc="http://creativecommons.org/ns#" xmlns:dc="http://purl.org/dc/elements/1.1/">
<g transform="translate(-267.3 -384.8)" fill="#d40000">
<path d="m292.8 426.9c9.921-9.681 16.44-20.24 22.67-30.39 5.464 11.17 13.31 20.94 21.79 30.39-9.073 9.369-16.11 19.39-21.76 29.92-6.268-10.8-12.87-20.57-22.69-29.92z"/>
<path d="m292.8 527.1c9.921-9.681 16.44-20.24 22.67-30.39 5.464 11.17 13.31 20.94 21.79 30.39-9.073 9.369-16.11 19.39-21.76 29.92-6.268-10.8-12.87-20.57-22.69-29.92z"/>
<path d="m292.8 625.7c9.921-9.681 16.44-20.24 22.67-30.39 5.464 11.17 13.31 20.94 21.79 30.39-9.073 9.369-16.11 19.39-21.76 29.92-6.268-10.8-12.87-20.57-22.69-29.92z"/>
<path d="m349 477c9.921-9.681 16.44-20.24 22.67-30.39 5.464 11.17 13.31 20.94 21.79 30.39-9.073 9.369-16.11 19.39-21.76 29.92-6.268-10.8-12.87-20.57-22.69-29.92z"/>
<path d="m404.3 426.9c9.921-9.681 16.44-20.24 22.67-30.39 5.464 11.17 13.31 20.94 21.79 30.39-9.073 9.369-16.11 19.39-21.76 29.92-6.268-10.8-12.87-20.57-22.69-29.92z"/>
<path d="m404.3 527.1c9.921-9.681 16.44-20.24 22.67-30.39 5.464 11.17 13.31 20.94 21.79 30.39-9.073 9.369-16.11 19.39-21.76 29.92-6.268-10.8-12.87-20.57-22.69-29.92z"/>
<path d="m404.3 625.7c9.921-9.681 16.44-20.24 22.67-30.39 5.464 11.17 13.31 20.94 21.79 30.39-9.073 9.369-16.11 19.39-21.76 29.92-6.268-10.8-12.87-20.57-22.69-29.92z"/>
<path d="m349 576.4c9.921-9.681 16.44-20.24 22.67-30.39 5.464 11.17 13.31 20.94 21.79 30.39-9.073 9.369-16.11 19.39-21.76 29.92-6.268-10.8-12.87-20.57-22.69-29.92z"/>
<path d="m458.4 621.6c4.064-3.966 6.733-8.29 9.285-12.45 2.238 4.576 5.451 8.579 8.925 12.45-3.717 3.838-6.597 7.941-8.913 12.26-2.567-4.422-5.27-8.427-9.296-12.26z"/>
<path d="m269.6 435.8c4.064-3.966 6.733-8.29 9.285-12.45 2.238 4.576 5.451 8.579 8.925 12.45-3.717 3.838-6.597 7.941-8.913 12.26-2.567-4.422-5.27-8.427-9.296-12.26z"/>
<path d="m267.3 407.8c0.1601-4.375 1.771-6.019 4.944-8.309-2.531-1.795-3.598-4.437-3.382-6.687 0.5215-5.447 4.81-8.172 9.485-8.053 4.675 0.1187 8.705 3.764 9.019 7.722 0.2733 3.443-0.7704 5.102-3.257 6.915 2.953 2.441 4.84 4.05 4.769 8.36-0.0716 4.31-3.806 9.44-10.31 9.597-6.509 0.1575-11.42-5.169-11.26-9.544zm18.17 0.0145c0.2792-3.962-3.288-6.635-7.313-6.677-3.922-0.0405-7.431 3.247-7.432 6.804 0 3.821 4.564 5.897 7.511 5.908 3.582 0.0133 6.994-2.622 7.234-6.035zm-1.288-14.17c0.0779-3.338-3.057-5.73-6.289-5.633-2.875 0.0856-5.921 2.241-5.923 5.031-0.003 3.49 3.462 5.232 6.417 5.298 2.68 0.0596 5.735-2.175 5.794-4.696z"/>
<path d="m476.8 644.5c-0.1601 4.375-1.771 6.018-4.944 8.309 2.531 1.795 3.598 4.437 3.382 6.687-0.5215 5.447-4.81 8.172-9.485 8.053-4.675-0.1187-8.705-3.764-9.019-7.722-0.2733-3.443 0.7704-5.102 3.257-6.915-2.953-2.441-4.84-4.05-4.769-8.36 0.0716-4.31 3.806-9.44 10.31-9.597 6.509-0.1575 11.42 5.169 11.26 9.544zm-18.17-0.0145c-0.2792 3.962 3.288 6.635 7.313 6.677 3.922 0.0405 7.431-3.247 7.432-6.804 0-3.821-4.564-5.897-7.511-5.908-3.582-0.0132-6.994 2.622-7.234 6.035zm1.288 14.17c-0.0779 3.338 3.057 5.73 6.289 5.633 2.875-0.0856 5.921-2.241 5.923-5.031 0.003-3.49-3.462-5.232-6.417-5.298-2.68-0.0596-5.735 2.175-5.794 4.696z"/>
</g>
</svg>
