<svg xmlns:rdf="http://www.w3.org/1999/02/22-rdf-syntax-ns#" xmlns="http://www.w3.org/2000/svg" height="282.8" width="209.9" xmlns:cc="http://creativecommons.org/ns#" xmlns:dc="http://purl.org/dc/elements/1.1/">
<g transform="translate(-267.3 -384.8)" fill="#d40000">
<path d="m267.3 407.8c0.1601-4.375 1.771-6.019 4.944-8.309-2.531-1.795-3.598-4.437-3.382-6.687 0.5215-5.447 4.81-8.172 9.485-8.053 4.675 0.1187 8.705 3.764 9.019 7.722 0.2733 3.443-0.7704 5.102-3.257 6.915 2.953 2.441 4.84 4.05 4.769 8.36-0.0716 4.31-3.806 9.44-10.31 9.597-6.509 0.1575-11.42-5.169-11.26-9.544zm18.17 0.0145c0.2792-3.962-3.288-6.635-7.313-6.677-3.922-0.0405-7.431 3.247-7.432 6.804 0 3.821 4.564 5.897 7.511 5.908 3.582 0.0133 6.994-2.622 7.234-6.035zm-1.288-14.17c0.0779-3.338-3.057-5.73-6.289-5.633-2.875 0.0856-5.921 2.241-5.923 5.031-0.003 3.49 3.462 5.232 6.417 5.298 2.68 0.0596 5.735-2.175 5.794-4.696z"/>
<path d="m476.8 644.5c-0.1601 4.375-1.771 6.018-4.944 8.309 2.531 1.795 3.598 4.437 3.382 6.687-0.5215 5.447-4.81 8.172-9.485 8.053-4.675-0.1187-8.705-3.764-9.019-7.722-0.2733-3.443 0.7704-5.102 3.257-6.915-2.953-2.441-4.84-4.05-4.769-8.36 0.0716-4.31 3.806-9.44 10.31-9.597 6.509-0.1575 11.42 5.169 11.26 9.544zm-18.17-0.0145c-0.2792 3.962 3.288 6.635 7.313 6.677 3.922 0.0405 7.431-3.247 7.432-6.804 0-3.821-4.564-5.897-7.511-5.908-3.582-0.0132-6.994 2.622-7.234 6.035zm1.288 14.17c-0.0779 3.338 3.057 5.73 6.289 5.633 2.875-0.0856 5.921-2.241 5.923-5.031 0.003-3.49-3.462-5.232-6.417-5.298-2.68-0.0596-5.735 2.175-5.794 4.696z"/>
<path d="m270 433.2c-1.583-3.472-1.757-9.405 2.971-10.21 3.562-0.4584 5.012 1.198 5.3 3.742 0.1422 0.743 0.5617 0.7885 0.6948-0.0583 0.2044-2.609 2.787-4.133 4.806-3.75 5.527 0.9454 5.204 7.028 3.398 11.16-2.731 5.479-5.601 8.938-8.245 14.45-3.038-5.741-6.507-10.41-8.926-15.33z"/>
<path d="m305 397.9c7.144-0.4744 10.87 5.627 11.6 10.44 0.4334 0.7639 0.6707 0.5486 0.8369-0.0423 0.3493-6.174 5.875-11.22 10.99-10.53 8.328 0.1083 13.39 9.375 11.97 17.22-1.738 9.582-6.9 15.35-10.81 21.29-4.421 6.152-10.37 15.04-12.29 19.32 0 0-6.048-9.205-13.92-20.03-5.262-7.239-9.473-15.08-9.865-21.84-0.4479-7.715 2.719-14.63 11.49-15.83z"/>
<path d="m414.5 397.9c7.144-0.4744 10.87 5.627 11.6 10.44 0.4334 0.7639 0.6707 0.5486 0.8369-0.0423 0.3493-6.174 5.875-11.22 10.99-10.53 8.328 0.1083 13.39 9.375 11.97 17.22-1.738 9.582-6.9 15.35-10.81 21.29-4.421 6.152-10.37 15.04-12.29 19.32 0 0-6.048-9.205-13.92-20.03-5.262-7.239-9.473-15.08-9.865-21.84-0.4479-7.715 2.719-14.63 11.49-15.83z"/>
<path d="m359.2 448c7.144-0.4744 10.87 5.627 11.6 10.44 0.4334 0.7639 0.6707 0.5486 0.8369-0.0423 0.3493-6.174 5.875-11.22 10.99-10.53 8.328 0.1083 13.39 9.375 11.97 17.22-1.738 9.582-6.9 15.35-10.81 21.29-4.421 6.152-10.37 15.04-12.29 19.32 0 0-6.048-9.205-13.92-20.03-5.262-7.239-9.473-15.08-9.865-21.84-0.4479-7.715 2.719-14.63 11.49-15.83z"/>
<path d="m305 498.2c7.144-0.4744 10.87 5.627 11.6 10.44 0.4334 0.7639 0.6707 0.5486 0.8369-0.0423 0.3493-6.174 5.875-11.22 10.99-10.53 8.328 0.1083 13.39 9.375 11.97 17.22-1.738 9.582-6.9 15.35-10.81 21.29-4.421 6.152-10.37 15.04-12.29 19.32 0 0-6.048-9.205-13.92-20.03-5.262-7.239-9.473-15.08-9.865-21.84-0.4479-7.715 2.719-14.63 11.49-15.83z"/>
<path d="m414.5 498.2c7.144-0.4744 10.87 5.627 11.6 10.44 0.4334 0.7639 0.6707 0.5486 0.8369-0.0423 0.3493-6.174 5.875-11.22 10.99-10.53 8.328 0.1083 13.39 9.375 11.97 17.22-1.738 9.582-6.9 15.35-10.81 21.29-4.421 6.152-10.37 15.04-12.29 19.32 0 0-6.048-9.205-13.92-20.03-5.262-7.239-9.473-15.08-9.865-21.84-0.4479-7.715 2.719-14.63 11.49-15.83z"/>
<path d="m414.5 654.3c7.144 0.4744 10.87-5.627 11.6-10.44 0.4334-0.7639 0.6707-0.5486 0.8369 0.0423 0.3493 6.174 5.875 11.22 10.99 10.53 8.328-0.1083 13.39-9.375 11.97-17.22-1.738-9.582-6.9-15.35-10.81-21.29-4.421-6.152-10.37-15.04-12.29-19.32 0 0-6.048 9.205-13.92 20.03-5.262 7.239-9.473 15.08-9.865 21.84-0.4479 7.715 2.719 14.63 11.49 15.83z"/>
<path d="m359.2 605c7.144 0.4744 10.87-5.627 11.6-10.44 0.4334-0.7639 0.6707-0.5486 0.8369 0.0423 0.3493 6.174 5.875 11.22 10.99 10.53 8.328-0.1083 13.39-9.375 11.97-17.22-1.738-9.582-6.9-15.35-10.81-21.29-4.421-6.152-10.37-15.04-12.29-19.32 0 0-6.048 9.205-13.92 20.03-5.262 7.239-9.473 15.08-9.865 21.84-0.4479 7.715 2.719 14.63 11.49 15.83z"/>
<path d="m305 654.3c7.144 0.4744 10.87-5.627 11.6-10.44 0.4334-0.7639 0.6707-0.5486 0.8369 0.0423 0.3493 6.174 5.875 11.22 10.99 10.53 8.328-0.1083 13.39-9.375 11.97-17.22-1.738-9.582-6.9-15.35-10.81-21.29-4.421-6.152-10.37-15.04-12.29-19.32 0 0-6.048 9.205-13.92 20.03-5.262 7.239-9.473 15.08-9.865 21.84-0.4479 7.715 2.719 14.63 11.49 15.83z"/>
<path d="m458.8 624c-1.583 3.472-1.757 9.405 2.971 10.21 3.562 0.4584 5.012-1.198 5.3-3.742 0.1422-0.743 0.5617-0.7885 0.6948 0.0583 0.2044 2.609 2.787 4.133 4.806 3.75 5.527-0.9454 5.204-7.028 3.398-11.16-2.731-5.479-5.601-8.938-8.245-14.45-3.038 5.741-6.507 10.41-8.926 15.33z"/>
</g>
</svg>
