<svg xmlns:rdf="http://www.w3.org/1999/02/22-rdf-syntax-ns#" xmlns="http://www.w3.org/2000/svg" height="284" width="209" xmlns:cc="http://creativecommons.org/ns#" xmlns:dc="http://purl.org/dc/elements/1.1/">
<g stroke="#000" stroke-width=".3011" transform="translate(-267.5 -384.2)" fill="#d40000">
<path d="m349.7 526.3c9.921-9.681 16.44-20.24 22.67-30.39 5.464 11.17 13.31 20.94 21.79 30.39-9.073 9.369-16.11 19.39-21.76 29.92-6.268-10.8-12.87-20.57-22.69-29.92z"/>
<path d="m456.7 619.3c4.064-3.966 6.733-8.29 9.285-12.45 2.238 4.576 5.451 8.579 8.925 12.45-3.717 3.838-6.597 7.941-8.913 12.26-2.567-4.422-5.27-8.427-9.296-12.26z"/>
<path d="m268.3 433.6c4.064-3.966 6.733-8.29 9.285-12.45 2.238 4.576 5.451 8.579 8.925 12.45-3.717 3.838-6.597 7.941-8.913 12.26-2.567-4.422-5.27-8.427-9.296-12.26z"/>
<path d="m267.7 416.3v-2.737h2.661l5.664-29.27h3.223l6.243 29.27h2.148v2.737h-7.318v-2.737h1.977l-0.7876-4.486h-7.386l-0.5702 4.486h1.977v2.737zm13.18-10.42-3.209-15.67-3.007 15.67z"/>
<path d="m476.4 636v2.737h-2.661l-5.664 29.27h-3.223l-6.243-29.27h-2.148v-2.737h7.318v2.737h-1.977l0.7876 4.486h7.386l0.5702-4.486h-1.977v-2.737zm-13.18 10.42 3.209 15.67 3.007-15.67z"/>
</g>
</svg>
