<svg xmlns:rdf="http://www.w3.org/1999/02/22-rdf-syntax-ns#" xmlns="http://www.w3.org/2000/svg" height="283.9" width="206.8" xmlns:cc="http://creativecommons.org/ns#" xmlns:dc="http://purl.org/dc/elements/1.1/">
<g transform="translate(-268.7 -384.2)">
<path d="m268.7 416.9 0.1648-2.019c0.5094-6.239 1.874-8.346 9.622-14.86 3.76-3.159 4.994-4.717 5.168-6.526 0.4909-4.26-3.351-5.591-5.855-5.614-3.242-0.0298-6.91 1.912-5.161 6.414l-3.637 1.068c-0.7343-4.2 0.0169-8.142 3.425-9.892 4.546-2.28 10.38-1.385 13.32 2.207 1.978 2.414 2.428 5.746 1.368 8.356-3.101 6.672-13.62 9.606-14.49 17.32h11.63v-4.295h3.426v7.907z"/>
<path d="m475.4 635.4-0.1648 2.019c-0.5094 6.239-1.874 8.346-9.622 14.86-3.76 3.159-4.994 4.717-5.168 6.526-0.4909 4.26 3.351 5.591 5.855 5.614 3.242 0.0298 6.91-1.912 5.161-6.414l3.637-1.068c0.7343 4.2-0.0169 8.142-3.425 9.892-4.546 2.28-10.38 1.385-13.32-2.207-1.978-2.414-2.428-5.746-1.368-8.356 3.101-6.672 13.62-9.606 14.49-17.32h-11.63v4.295h-3.426v-7.907z"/>
<path d="m371 438.4c0.015-2.026-1.587-2.064-1.569-0.5858-0.1343 7.429-6.416 11.09-10.98 10.22-7.036-1.338-9.282-8.322-9.215-12.44 0.2072-12.7 12.99-22.06 24.52-38.33 8.45 14.69 22.4 26.23 23.22 37.59 1.098 15.1-18.01 20.73-20.74 3.133-0.176-1.243-1.64-1.801-1.526-0.065 0.4145 4.823-0.1749 6.831 5.266 18.72h-14.22c3.15-5.555 5.025-12.37 5.24-18.24z"/>
<path d="m371 614.4c0.015 2.026-1.587 2.064-1.569 0.5858-0.1343-7.429-6.416-11.09-10.98-10.22-7.036 1.338-9.282 8.322-9.215 12.44 0.2072 12.7 12.99 22.06 24.52 38.33 8.45-14.69 22.4-26.23 23.22-37.59 1.098-15.1-18.01-20.73-20.74-3.133-0.176 1.243-1.64 1.801-1.526 0.065 0.4145-4.823-0.1749-6.831 5.266-18.72h-14.22c3.15 5.555 5.025 12.37 5.24 18.24z"/>
<path d="m278.9 439.6c0.01-0.8715-0.8953-0.4646-1.018-0.1903-1.163 1.986-2.865 2.448-4.548 1.732-1.667-0.7092-2.604-2.28-2.454-4.522 0.3102-3.438 3.035-7.2 4.355-9.326 1.252-1.93 2.628-4.222 4.077-7.154 1.697 3.363 2.559 4.321 4.405 7.392 1.626 2.704 3.892 5.353 4.068 8.622 0 2.485-1.046 4.832-3.399 5.259-1.331 0.2419-2.579-0.4416-3.504-2.037-0.2818-0.4066-0.8487-0.1947-0.8392 0.3619 0.1651 2.093 0.9553 3.983 2.829 6.212h-6.887c1.41-1.576 2.849-3.704 2.915-6.349z"/>
<path d="m466.6 612.7c0.01 0.8715-0.8953 0.4646-1.018 0.1903-1.163-1.986-2.865-2.448-4.548-1.732-1.667 0.7092-2.604 2.28-2.454 4.522 0.3102 3.438 3.035 7.2 4.355 9.326 1.252 1.93 2.628 4.222 4.077 7.154 1.697-3.363 2.559-4.321 4.405-7.392 1.626-2.704 3.892-5.353 4.068-8.622 0-2.485-1.046-4.832-3.399-5.259-1.331-0.2419-2.579 0.4416-3.504 2.037-0.2818 0.4066-0.8487 0.1946-0.8392-0.3619 0.1651-2.093 0.9553-3.983 2.829-6.212h-6.887c1.41 1.576 2.849 3.704 2.915 6.349z"/>
</g>
</svg>
