<svg xmlns:rdf="http://www.w3.org/1999/02/22-rdf-syntax-ns#" xmlns="http://www.w3.org/2000/svg" height="284.1" width="206.6" xmlns:cc="http://creativecommons.org/ns#" xmlns:dc="http://purl.org/dc/elements/1.1/">
<g transform="translate(-268.9 -384.1)" fill="#d40000">
<path d="m268.9 409.5 2.547-1.84c2.214 3.534 4.685 5.863 8.465 5.462 5.674-0.3816 8.023-6.22 6.835-10.62-1.147-3.945-5.846-5.869-9.578-3.763-0.8802 0.4968-1.898 1.11-1.898 1.11l-1.329-2.166 8.764-10.19h-9.51v4.22h-3.649v-7.565h18.59v2.568s-4.979 5.069-6.627 7.847c4.055 0.1475 7.323 2.669 8.492 6.658 0.6864 2.098 0.3778 6.901-0.5167 8.968-1.494 3.451-5.584 6.25-9.322 6.412-6.271 0.4142-9.602-3.902-11.26-7.094z"/>
<path d="m475.2 642.9-2.547 1.84c-2.214-3.534-4.685-5.863-8.465-5.462-5.674 0.3816-8.023 6.22-6.835 10.62 1.147 3.945 5.846 5.869 9.578 3.763 0.8802-0.4968 1.898-1.016 1.898-1.016l1.573 2.034-9.008 10.23h9.51v-4.22h3.649v7.565h-18.59v-2.568s4.979-5.069 6.627-7.847c-4.055-0.1475-7.323-2.669-8.492-6.658-0.6864-2.098-0.3778-6.901 0.5167-8.968 1.494-3.451 5.584-6.25 9.322-6.412 6.271-0.4142 9.602 3.902 11.26 7.094z"/>
<path d="m270.2 430.9c-1.583-3.472-1.757-9.405 2.971-10.21 3.562-0.4584 5.012 1.198 5.3 3.742 0.1422 0.743 0.5617 0.7885 0.6948-0.0583 0.2044-2.609 2.787-4.133 4.806-3.75 5.527 0.9454 5.204 7.028 3.398 11.16-2.731 5.479-5.601 8.938-8.245 14.45-3.038-5.741-6.507-10.41-8.926-15.33z"/>
<path d="m359.9 399c7.144-0.4744 10.87 5.627 11.6 10.44 0.4334 0.7639 0.6707 0.5486 0.8369-0.0423 0.3493-6.174 5.875-11.22 10.99-10.53 8.328 0.1083 13.39 9.375 11.97 17.22-1.738 9.582-6.9 15.35-10.81 21.29-4.421 6.152-10.37 15.04-12.29 19.32 0 0-6.048-9.205-13.92-20.03-5.262-7.239-9.473-15.08-9.865-21.84-0.4479-7.715 2.719-14.63 11.49-15.83z"/>
<path d="m360 497.4c7.144-0.4744 10.87 5.627 11.6 10.44 0.4334 0.7639 0.6707 0.5486 0.8369-0.0423 0.3493-6.174 5.875-11.22 10.99-10.53 8.328 0.1083 13.39 9.375 11.97 17.22-1.738 9.582-6.9 15.35-10.81 21.29-4.421 6.152-10.37 15.04-12.29 19.32 0 0-6.048-9.205-13.92-20.03-5.262-7.239-9.473-15.08-9.865-21.84-0.4479-7.715 2.719-14.63 11.49-15.83z"/>
<path d="m457.2 622.2c-1.583 3.472-1.757 9.405 2.971 10.21 3.562 0.4584 5.012-1.198 5.3-3.742 0.1422-0.743 0.5617-0.7885 0.6948 0.0583 0.2044 2.609 2.787 4.133 4.806 3.75 5.527-0.9454 5.204-7.028 3.398-11.16-2.731-5.479-5.601-8.938-8.245-14.45-3.038 5.741-6.507 10.41-8.926 15.33z"/>
<path d="m359.9 653.6c7.144 0.4744 10.87-5.627 11.6-10.44 0.4334-0.7639 0.6707-0.5486 0.8369 0.0423 0.3493 6.174 5.875 11.22 10.99 10.53 8.328-0.1083 13.39-9.375 11.97-17.22-1.738-9.582-6.9-15.35-10.81-21.29-4.421-6.152-10.37-15.04-12.29-19.32 0 0-6.048 9.205-13.92 20.03-5.262 7.239-9.473 15.08-9.865 21.84-0.4479 7.715 2.719 14.63 11.49 15.83z"/>
</g>
</svg>
