<svg xmlns:rdf="http://www.w3.org/1999/02/22-rdf-syntax-ns#" xmlns="http://www.w3.org/2000/svg" height="284.1" width="206.3" xmlns:cc="http://creativecommons.org/ns#" xmlns:dc="http://purl.org/dc/elements/1.1/">
<g transform="translate(-268.9 -384.1)">
<path d="m268.9 409.5 2.547-1.84c2.214 3.534 4.685 5.863 8.465 5.462 5.674-0.3816 8.023-6.22 6.835-10.62-1.147-3.945-5.846-5.869-9.578-3.763-0.8802 0.4968-1.898 1.11-1.898 1.11l-1.329-2.166 8.764-10.19h-9.51v4.22h-3.649v-7.565h18.59v2.568s-4.979 5.069-6.627 7.847c4.055 0.1475 7.323 2.669 8.492 6.658 0.6864 2.098 0.3778 6.901-0.5167 8.968-1.494 3.451-5.584 6.25-9.322 6.412-6.271 0.4142-9.602-3.902-11.26-7.094z"/>
<path d="m475.2 642.9-2.547 1.84c-2.214-3.534-4.685-5.863-8.465-5.462-5.674 0.3816-8.023 6.22-6.835 10.62 1.147 3.945 5.846 5.869 9.578 3.763 0.8802-0.4968 1.898-1.016 1.898-1.016l1.573 2.034-9.008 10.23h9.51v-4.22h3.649v7.565h-18.59v-2.568s4.979-5.069 6.627-7.847c-4.055-0.1475-7.323-2.669-8.492-6.658-0.6864-2.098-0.3778-6.901 0.5167-8.968 1.494-3.451 5.584-6.25 9.322-6.412 6.271-0.4142 9.602 3.902 11.26 7.094z"/>
<path d="m369.8 439.2c0.015-2.026-1.587-2.064-1.569-0.5858-0.1343 7.429-6.416 11.09-10.98 10.22-7.036-1.338-9.282-8.322-9.215-12.44 0.2072-12.7 12.99-22.06 24.52-38.33 8.45 14.69 22.4 26.23 23.22 37.59 1.098 15.1-18.01 20.73-20.74 3.133-0.176-1.243-1.64-1.801-1.526-0.065 0.4145 4.823-0.1749 6.831 5.266 18.72h-14.22c3.15-5.555 5.025-12.37 5.24-18.24z"/>
<path d="m369.9 514.8c0.015 2.026-1.587 2.064-1.569 0.5858-0.1343-7.429-6.416-11.09-10.98-10.22-7.036 1.338-9.282 8.322-9.215 12.44 0.2072 12.7 12.99 22.06 24.52 38.33 8.45-14.69 22.4-26.23 23.22-37.59 1.098-15.1-18.01-20.73-20.74-3.133-0.176 1.243-1.64 1.801-1.526 0.065 0.4145-4.823-0.1749-6.831 5.266-18.72h-14.22c3.15 5.555 5.025 12.37 5.24 18.24z"/>
<path d="m369.9 613.4c0.015 2.026-1.587 2.064-1.569 0.5858-0.1343-7.429-6.416-11.09-10.98-10.22-7.036 1.338-9.282 8.322-9.215 12.44 0.2072 12.7 12.99 22.06 24.52 38.33 8.45-14.69 22.4-26.23 23.22-37.59 1.098-15.1-18.01-20.73-20.74-3.133-0.176 1.243-1.64 1.801-1.526 0.065 0.4145-4.823-0.1749-6.831 5.266-18.72h-14.22c3.15 5.555 5.025 12.37 5.24 18.24z"/>
<path d="m278.4 440c0.01-0.8715-0.8953-0.4646-1.018-0.1903-1.163 1.986-2.865 2.448-4.548 1.732-1.667-0.7092-2.604-2.28-2.454-4.522 0.3102-3.438 3.035-7.2 4.355-9.326 1.252-1.93 2.628-4.222 4.077-7.154 1.697 3.363 2.559 4.321 4.405 7.392 1.626 2.704 3.892 5.353 4.068 8.622 0 2.485-1.046 4.832-3.399 5.259-1.331 0.2419-2.579-0.4416-3.504-2.037-0.2818-0.4066-0.8488-0.1947-0.8393 0.3619 0.1652 2.093 0.9554 3.983 2.83 6.212h-6.887c1.41-1.576 2.849-3.704 2.915-6.349z"/>
<path d="m465.4 613.1c0.01 0.8715-0.8953 0.4646-1.018 0.1903-1.163-1.986-2.865-2.448-4.548-1.732-1.667 0.7092-2.604 2.28-2.454 4.522 0.3102 3.438 3.035 7.2 4.355 9.326 1.252 1.93 2.628 4.222 4.077 7.154 1.697-3.363 2.559-4.321 4.405-7.392 1.626-2.704 3.892-5.353 4.068-8.622 0-2.485-1.046-4.832-3.399-5.259-1.331-0.2419-2.579 0.4416-3.504 2.037-0.2818 0.4066-0.8487 0.1946-0.8392-0.3619 0.1651-2.093 0.9553-3.983 2.829-6.212h-6.887c1.41 1.576 2.849 3.704 2.915 6.349z"/>
</g>
</svg>
