<svg xmlns:rdf="http://www.w3.org/1999/02/22-rdf-syntax-ns#" xmlns="http://www.w3.org/2000/svg" height="282.7" width="208.2" xmlns:cc="http://creativecommons.org/ns#" xmlns:dc="http://purl.org/dc/elements/1.1/">
<g transform="translate(-267.9 -384.8)">
<path d="m278.3 416.6v-2.813h2.585v-4.636h-12.93v-3.271l13.99-21.1 2.285 0.008v21.09h3.954v3.271h-3.954l-0.0761 4.636h2.167v2.813zm2.585-24.1-8.879 13.38h8.879z"/>
<path d="m465.8 635.7v2.813h-2.585v4.636h12.93v3.271l-13.99 21.1-2.285-0.008v-21.09h-3.954v-3.271h3.954l0.0761-4.636h-2.167v-2.813zm-2.585 24.1 8.879-13.38h-8.879z"/>
<path d="m315.3 436.5c0.015-2.026-1.587-2.064-1.569-0.5858-0.1343 7.429-6.416 11.09-10.98 10.22-7.036-1.338-9.282-8.322-9.215-12.44 0.2072-12.7 12.99-22.06 24.52-38.33 8.45 14.69 22.4 26.23 23.22 37.59 1.098 15.1-18.01 20.73-20.74 3.133-0.176-1.243-1.64-1.801-1.526-0.065 0.4145 4.823-0.1749 6.831 5.266 18.72h-14.22c3.15-5.555 5.025-12.37 5.24-18.24z"/>
<path d="m426.9 436.5c0.015-2.026-1.587-2.064-1.569-0.5858-0.1343 7.429-6.416 11.09-10.98 10.22-7.036-1.338-9.282-8.322-9.215-12.44 0.2072-12.7 12.99-22.06 24.52-38.33 8.45 14.69 22.4 26.23 23.22 37.59 1.098 15.1-18.01 20.73-20.74 3.133-0.176-1.243-1.64-1.801-1.526-0.065 0.4145 4.823-0.1749 6.831 5.266 18.72h-14.22c3.15-5.555 5.025-12.37 5.24-18.24z"/>
<path d="m315.4 612.5c0.015 2.026-1.587 2.064-1.569 0.5858-0.1343-7.429-6.416-11.09-10.98-10.22-7.036 1.338-9.282 8.322-9.215 12.44 0.2072 12.7 12.99 22.06 24.52 38.33 8.45-14.69 22.4-26.23 23.22-37.59 1.098-15.1-18.01-20.73-20.74-3.133-0.176 1.243-1.64 1.801-1.526 0.065 0.4145-4.823-0.1749-6.831 5.266-18.72h-14.22c3.15 5.555 5.025 12.37 5.24 18.24z"/>
<path d="m426.9 612.5c0.015 2.026-1.587 2.064-1.569 0.5858-0.1343-7.429-6.416-11.09-10.98-10.22-7.036 1.338-9.282 8.322-9.215 12.44 0.2072 12.7 12.99 22.06 24.52 38.33 8.45-14.69 22.4-26.23 23.22-37.59 1.098-15.1-18.01-20.73-20.74-3.133-0.176 1.243-1.64 1.801-1.526 0.065 0.4145-4.823-0.1749-6.831 5.266-18.72h-14.22c3.15 5.555 5.025 12.37 5.24 18.24z"/>
<path d="m277.4 440.3c0.01-0.8715-0.8953-0.4646-1.018-0.1903-1.163 1.986-2.865 2.448-4.548 1.732-1.667-0.7092-2.604-2.28-2.454-4.522 0.3102-3.438 3.035-7.2 4.355-9.326 1.252-1.93 2.628-4.222 4.077-7.154 1.697 3.363 2.559 4.321 4.405 7.392 1.626 2.704 3.892 5.353 4.068 8.622 0 2.485-1.046 4.832-3.399 5.259-1.331 0.2419-2.579-0.4416-3.504-2.037-0.2818-0.4066-0.8488-0.1947-0.8393 0.3619 0.1652 2.093 0.9554 3.983 2.83 6.212h-6.887c1.41-1.576 2.849-3.704 2.915-6.349z"/>
<path d="m464.7 612.3c0.01 0.8715-0.8953 0.4646-1.018 0.1903-1.163-1.986-2.865-2.448-4.548-1.732-1.667 0.7092-2.604 2.28-2.454 4.522 0.3102 3.438 3.035 7.2 4.355 9.326 1.252 1.93 2.628 4.222 4.077 7.154 1.697-3.363 2.559-4.321 4.405-7.392 1.626-2.704 3.892-5.353 4.068-8.622 0-2.485-1.046-4.832-3.399-5.259-1.331-0.2419-2.579 0.4416-3.504 2.037-0.2818 0.4066-0.8487 0.1946-0.8392-0.3619 0.1651-2.093 0.9553-3.983 2.829-6.212h-6.887c1.41 1.576 2.849 3.704 2.915 6.349z"/>
</g>
</svg>
