<svg xmlns:rdf="http://www.w3.org/1999/02/22-rdf-syntax-ns#" xmlns="http://www.w3.org/2000/svg" height="284.5" width="206.9" xmlns:cc="http://creativecommons.org/ns#" xmlns:dc="http://purl.org/dc/elements/1.1/">
<g transform="translate(-268.6 -383.9)">
<path d="m268.6 407.8 3.22-0.0283c0.6124 1.944 1.972 3.926 3.817 4.473 5.212 1.224 8.567-1.687 9.673-5.047 1.34-4.074-0.0304-9.795-3.618-11.83-2.976-1.686-7.395-0.264-9.422 3.339l-2.257-1.38 1.211-13.42h14.73v3.172h-11.94l-0.1873 5.591c2.565-1.802 6.518-1.785 9.085-0.5199 4.865 2.319 7.124 7.593 6.177 13.81-1.31 6.183-4.197 9.687-10.72 10.19-7.245 0.0626-9.804-4.918-9.775-8.351z"/>
<path d="m475.5 644.5-3.22 0.0283c-0.6124-1.944-1.972-3.926-3.817-4.473-5.212-1.224-8.567 1.687-9.673 5.047-1.34 4.074 0.0303 9.795 3.618 11.83 2.976 1.686 7.395 0.264 9.422-3.339l2.257 1.38-1.211 13.42h-14.73v-3.172h11.94l0.1873-5.591c-2.565 1.802-6.518 1.785-9.085 0.5199-4.865-2.319-7.124-7.593-6.177-13.81 1.31-6.183 4.197-9.687 10.72-10.19 7.245-0.0626 9.804 4.918 9.775 8.351z"/>
<path d="m314.4 438.4c0.015-2.026-1.587-2.064-1.569-0.5858-0.1343 7.429-6.416 11.09-10.98 10.22-7.036-1.338-9.282-8.322-9.215-12.44 0.2072-12.7 12.99-22.06 24.52-38.33 8.45 14.69 22.4 26.23 23.22 37.59 1.098 15.1-18.01 20.73-20.74 3.133-0.176-1.243-1.64-1.801-1.526-0.065 0.4145 4.823-0.1749 6.831 5.266 18.72h-14.22c3.15-5.555 5.025-12.37 5.24-18.24z"/>
<path d="m425.1 438.4c0.015-2.026-1.587-2.064-1.569-0.5858-0.1343 7.429-6.416 11.09-10.98 10.22-7.036-1.338-9.282-8.322-9.215-12.44 0.2072-12.7 12.99-22.06 24.52-38.33 8.45 14.69 22.4 26.23 23.22 37.59 1.098 15.1-18.01 20.73-20.74 3.133-0.176-1.243-1.64-1.801-1.526-0.065 0.4145 4.823-0.1749 6.831 5.266 18.72h-14.22c3.15-5.555 5.025-12.37 5.24-18.24z"/>
<path d="m369.8 537.7c0.015-2.026-1.587-2.064-1.569-0.5858-0.1343 7.429-6.416 11.09-10.98 10.22-7.036-1.338-9.282-8.322-9.215-12.44 0.2072-12.7 12.99-22.06 24.52-38.33 8.45 14.69 22.4 26.23 23.22 37.59 1.098 15.1-18.01 20.73-20.74 3.133-0.176-1.243-1.64-1.801-1.526-0.065 0.4145 4.823-0.1749 6.831 5.266 18.72h-14.22c3.15-5.555 5.025-12.37 5.24-18.24z"/>
<path d="m314.4 612.2c0.015 2.026-1.587 2.064-1.569 0.5858-0.1343-7.429-6.416-11.09-10.98-10.22-7.036 1.338-9.282 8.322-9.215 12.44 0.2072 12.7 12.99 22.06 24.52 38.33 8.45-14.69 22.4-26.23 23.22-37.59 1.098-15.1-18.01-20.73-20.74-3.133-0.176 1.243-1.64 1.801-1.526 0.065 0.4145-4.823-0.1749-6.831 5.266-18.72h-14.22c3.15 5.555 5.025 12.37 5.24 18.24z"/>
<path d="m425.1 612.2c0.015 2.026-1.587 2.064-1.569 0.5858-0.1343-7.429-6.416-11.09-10.98-10.22-7.036 1.338-9.282 8.322-9.215 12.44 0.2072 12.7 12.99 22.06 24.52 38.33 8.45-14.69 22.4-26.23 23.22-37.59 1.098-15.1-18.01-20.73-20.74-3.133-0.176 1.243-1.64 1.801-1.526 0.065 0.4145-4.823-0.1749-6.831 5.266-18.72h-14.22c3.15 5.555 5.025 12.37 5.24 18.24z"/>
<path d="m278.2 439.9c0.01-0.8715-0.8953-0.4646-1.018-0.1903-1.163 1.986-2.865 2.448-4.548 1.732-1.667-0.7092-2.604-2.28-2.454-4.522 0.3102-3.438 3.035-7.2 4.355-9.326 1.252-1.93 2.628-4.222 4.077-7.154 1.697 3.363 2.559 4.321 4.405 7.392 1.626 2.704 3.892 5.353 4.068 8.622 0 2.485-1.046 4.832-3.399 5.259-1.331 0.2419-2.579-0.4416-3.504-2.037-0.2818-0.4066-0.8488-0.1947-0.8393 0.3619 0.1652 2.093 0.9554 3.983 2.83 6.212h-6.887c1.41-1.576 2.849-3.704 2.915-6.349z"/>
<path d="m464.9 612.7c0.01 0.8715-0.8953 0.4646-1.018 0.1903-1.163-1.986-2.865-2.448-4.548-1.732-1.667 0.7092-2.604 2.28-2.454 4.522 0.3102 3.438 3.035 7.2 4.355 9.326 1.252 1.93 2.628 4.222 4.077 7.154 1.697-3.363 2.559-4.321 4.405-7.392 1.626-2.704 3.892-5.353 4.068-8.622 0-2.485-1.046-4.832-3.399-5.259-1.331-0.2419-2.579 0.4416-3.504 2.037-0.2818 0.4066-0.8487 0.1947-0.8392-0.3619 0.1651-2.093 0.9553-3.983 2.829-6.212h-6.887c1.41 1.576 2.849 3.704 2.915 6.349z"/>
</g>
</svg>
