<svg xmlns:rdf="http://www.w3.org/1999/02/22-rdf-syntax-ns#" xmlns="http://www.w3.org/2000/svg" height="285" width="207.4" xmlns:cc="http://creativecommons.org/ns#" xmlns:dc="http://purl.org/dc/elements/1.1/">
<g transform="translate(-268.4 -383.7)" fill="#d40000">
<path d="m294.2 427.6c9.921-9.681 16.44-20.24 22.67-30.39 5.464 11.17 13.31 20.94 21.79 30.39-9.073 9.369-16.11 19.39-21.76 29.92-6.268-10.8-12.87-20.57-22.69-29.92z"/>
<path d="m294.2 526.5c9.921-9.681 16.44-20.24 22.67-30.39 5.464 11.17 13.31 20.94 21.79 30.39-9.073 9.369-16.11 19.39-21.76 29.92-6.268-10.8-12.87-20.57-22.69-29.92z"/>
<path d="m294.2 625.1c9.921-9.681 16.44-20.24 22.67-30.39 5.464 11.17 13.31 20.94 21.79 30.39-9.073 9.369-16.11 19.39-21.76 29.92-6.268-10.8-12.87-20.57-22.69-29.92z"/>
<path d="m405.7 427.6c9.921-9.681 16.44-20.24 22.67-30.39 5.464 11.17 13.31 20.94 21.79 30.39-9.073 9.369-16.11 19.39-21.76 29.92-6.268-10.8-12.87-20.57-22.69-29.92z"/>
<path d="m405.7 526.5c9.921-9.681 16.44-20.24 22.67-30.39 5.464 11.17 13.31 20.94 21.79 30.39-9.073 9.369-16.11 19.39-21.76 29.92-6.268-10.8-12.87-20.57-22.69-29.92z"/>
<path d="m405.7 625.1c9.921-9.681 16.44-20.24 22.67-30.39 5.464 11.17 13.31 20.94 21.79 30.39-9.073 9.369-16.11 19.39-21.76 29.92-6.268-10.8-12.87-20.57-22.69-29.92z"/>
<path d="m457.5 618.1c4.064-3.966 6.733-8.29 9.285-12.45 2.238 4.576 5.451 8.579 8.925 12.45-3.717 3.838-6.597 7.941-8.913 12.26-2.567-4.422-5.27-8.427-9.296-12.26z"/>
<path d="m268.7 432.2c4.064-3.966 6.733-8.29 9.285-12.45 2.238 4.576 5.451 8.579 8.925 12.45-3.717 3.838-6.597 7.941-8.913 12.26-2.567-4.422-5.27-8.427-9.296-12.26z"/>
<path d="m268.7 406.3c-0.4084-2.747-0.4018-9.845-0.0661-11.94 1.029-6.429 3.532-9.369 7.723-10.33 4.069-0.9357 9.789 0.1059 11.04 5.482l-3.406 0.0629c-1.84-3.633-6.495-2.662-9.116-1.082-2.093 1.262-3.039 6.52-2.634 6.843-0.003 0 3.957-2.877 7.076-2.665 6.668 0.6818 9.417 6.356 9.185 11.72-0.2107 6.45-2.295 11.6-9.361 11.95-6.718-0.2535-9.8-3.85-10.44-10.03zm16.57-1.705c0.0371-4.475-2.034-7.823-5.95-8.192-3.916-0.3696-7.864 3.382-7.59 7.942 0.2743 4.577 2.079 8.432 6.826 8.41 5.106-0.0229 6.687-4.976 6.713-8.16z"/>
<path d="m475.4 646.1c0.4084 2.747 0.4018 9.845 0.0661 11.94-1.029 6.429-3.532 9.369-7.723 10.33-4.069 0.9357-9.789-0.1059-11.04-5.482l3.406-0.0629c1.84 3.633 6.495 2.662 9.116 1.082 2.093-1.262 3.039-6.52 2.634-6.843 0.003 0-3.957 2.877-7.076 2.665-6.668-0.6818-9.417-6.356-9.185-11.72 0.2107-6.45 2.295-11.6 9.361-11.95 6.718 0.2535 9.8 3.85 10.44 10.03zm-16.57 1.705c-0.0371 4.475 2.034 7.823 5.95 8.192 3.916 0.3696 7.864-3.382 7.59-7.942-0.2743-4.577-2.079-8.432-6.826-8.41-5.106 0.0229-6.687 4.976-6.713 8.16z"/>
</g>
</svg>
