<svg xmlns:rdf="http://www.w3.org/1999/02/22-rdf-syntax-ns#" xmlns="http://www.w3.org/2000/svg" height="284" width="209.1" xmlns:cc="http://creativecommons.org/ns#" xmlns:dc="http://purl.org/dc/elements/1.1/">
<g transform="translate(-267.5 -384.2)">
<g transform="matrix(.3011 0 0 .3011 -43.63 1169)" stroke="#000">
<path d="m1034-2500v-9.091h8.839l18.81-97.23h10.7l20.74 97.23h7.134v9.091h-24.31v-9.091h6.566l-2.616-14.9h-24.53l-1.894 14.9h6.566v9.091zm43.77-34.6-10.66-52.05-9.987 52.05z"/>
<path d="m1727-1770v9.091h-8.839l-18.81 97.23h-10.7l-20.74-97.23h-7.134v-9.091h24.31v9.091h-6.566l2.616 14.9h24.53l1.894-14.9h-6.566v-9.091zm-43.77 34.6 10.66 52.05 9.987-52.05z"/>
</g>
<path d="m370.8 537.5c0.015-2.026-1.587-2.064-1.569-0.5858-0.1343 7.429-6.416 11.09-10.98 10.22-7.036-1.338-9.282-8.322-9.215-12.44 0.2072-12.7 12.99-22.06 24.52-38.33 8.45 14.69 22.4 26.23 23.22 37.59 1.098 15.1-18.01 20.73-20.74 3.133-0.176-1.243-1.64-1.801-1.526-0.065 0.4145 4.823-0.1749 6.831 5.266 18.72h-14.22c3.15-5.555 5.025-12.37 5.24-18.24z"/>
<path d="m278 440.1c0.01-0.8715-0.8953-0.4646-1.018-0.1903-1.163 1.986-2.865 2.448-4.548 1.732-1.667-0.7092-2.604-2.28-2.454-4.522 0.3102-3.438 3.035-7.2 4.355-9.326 1.252-1.93 2.628-4.222 4.077-7.154 1.697 3.363 2.559 4.321 4.405 7.392 1.626 2.704 3.892 5.353 4.068 8.622 0 2.485-1.046 4.832-3.399 5.259-1.331 0.2419-2.579-0.4416-3.504-2.037-0.2818-0.4066-0.8487-0.1947-0.8392 0.3619 0.1651 2.093 0.9553 3.983 2.829 6.212h-6.887c1.41-1.576 2.849-3.704 2.915-6.349z"/>
<path d="m466.3 612.7c0.01 0.8715-0.8953 0.4646-1.018 0.1903-1.163-1.986-2.865-2.448-4.548-1.732-1.667 0.7092-2.604 2.28-2.454 4.522 0.3102 3.438 3.035 7.2 4.355 9.326 1.252 1.93 2.628 4.222 4.077 7.154 1.697-3.363 2.559-4.321 4.405-7.392 1.626-2.704 3.892-5.353 4.068-8.622 0-2.485-1.046-4.832-3.399-5.259-1.331-0.2419-2.579 0.4416-3.504 2.037-0.2818 0.4066-0.8487 0.1946-0.8392-0.3619 0.1651-2.093 0.9553-3.983 2.829-6.212h-6.887c1.41 1.576 2.849 3.704 2.915 6.349z"/>
</g>
</svg>
